<?xml version="1.0" standalone="no"?>
<!DOCTYPE svg PUBLIC "-//W3C//DTD SVG 20010904//EN"
 "http://www.w3.org/TR/2001/REC-SVG-20010904/DTD/svg10.dtd">
<svg version="1.0" xmlns="http://www.w3.org/2000/svg"
 width="563.000000pt" height="594.000000pt" viewBox="0 0 563.000000 594.000000"
 preserveAspectRatio="xMidYMid meet">

<g transform="translate(0.000000,594.000000) scale(0.100000,-0.100000)"
fill="#000000" stroke="none">
<path d="M1094 5805 c4 -12 -3 -15 -29 -15 -18 0 -37 -4 -40 -10 -4 -6 8 -10
28 -10 40 0 51 -8 36 -27 -20 -24 16 -15 39 10 l22 23 -23 22 c-27 26 -42 28
-33 7z"/>
<path d="M1761 5722 c-5 -10 -6 -32 -1 -52 l8 -35 2 35 c1 19 2 39 1 44 -1 5
4 13 11 17 9 6 10 9 1 9 -7 0 -17 -8 -22 -18z"/>
<path d="M2590 5726 c0 -7 -9 -16 -20 -19 -27 -7 -29 -67 -2 -67 13 0 14 2 4
9 -16 10 -13 43 5 48 7 3 13 -9 16 -29 3 -23 4 -18 5 20 1 28 0 52 -3 52 -3 0
-5 -6 -5 -14z"/>
<path d="M3682 5690 c0 -51 1 -52 9 -22 5 17 14 32 19 32 5 0 11 -15 13 -32
l5 -33 -2 35 c-1 24 -6 35 -16 35 -8 0 -18 9 -22 20 -3 11 -6 -4 -6 -35z"/>
<path d="M938 5719 c-15 -8 -18 -24 -18 -79 0 -79 6 -84 91 -78 l44 3 3 70 c2
57 0 72 -14 82 -21 15 -82 17 -106 2z m102 -9 c37 -23 -44 -46 -94 -27 -15 6
-16 10 -6 22 14 17 77 20 100 5z"/>
<path d="M1197 5721 c50 -8 61 -17 45 -33 -13 -13 -67 -16 -96 -5 -16 6 -16
10 -5 24 12 14 12 16 -1 11 -19 -6 -27 -123 -9 -144 14 -17 110 -19 127 -2 7
7 12 38 12 69 0 48 -4 60 -22 73 -12 9 -38 15 -58 15 -35 -1 -35 -2 7 -8z"/>
<path d="M1433 5718 c9 -7 18 -29 20 -48 4 -34 4 -33 5 7 2 30 7 43 20 46 9 3
-1 5 -22 6 -34 1 -37 -1 -23 -11z"/>
<path d="M2260 5720 c0 -5 -7 -10 -15 -10 -16 0 -31 -43 -20 -59 3 -6 15 -11
26 -11 16 0 19 7 19 45 0 25 -2 45 -5 45 -3 0 -5 -4 -5 -10z m0 -45 c0 -16 -6
-25 -15 -25 -15 0 -21 31 -8 43 13 14 23 6 23 -18z"/>
<path d="M2342 5688 c-2 -46 -1 -48 26 -47 22 1 23 2 5 6 -18 3 -23 13 -26 46
l-4 42 -1 -47z"/>
<path d="M2670 5685 c0 -41 2 -45 25 -45 37 0 55 42 30 70 -10 11 -26 20 -37
20 -15 0 -18 -8 -18 -45z m50 14 c9 -15 8 -24 -1 -35 -21 -26 -39 -16 -39 21
0 40 22 48 40 14z"/>
<path d="M2911 5716 c-7 -8 -11 -27 -9 -43 2 -23 8 -28 33 -30 18 -1 22 1 10
4 -31 8 -38 19 -31 47 4 15 15 26 29 29 21 4 21 4 1 6 -12 0 -27 -5 -33 -13z"/>
<path d="M3803 5719 c-16 -16 -5 -39 18 -39 27 0 24 -28 -3 -33 -21 -4 -20 -4
3 -6 15 0 29 5 32 13 6 16 -11 36 -30 36 -7 0 -13 7 -13 16 0 11 6 15 20 11
11 -3 20 -1 20 4 0 13 -34 11 -47 -2z"/>
<path d="M3878 5704 c-15 -31 -1 -58 31 -60 18 -1 18 -1 2 3 -25 5 -37 39 -20
59 7 9 21 13 31 11 10 -3 16 -1 12 4 -11 18 -45 9 -56 -17z"/>
<path d="M3957 5723 c-4 -3 -7 -24 -7 -45 0 -34 3 -38 24 -38 23 0 56 23 56
38 0 32 -54 65 -73 45z m48 -38 c0 -23 -5 -31 -22 -33 -19 -3 -23 1 -23 26 0
33 8 44 30 40 9 -2 15 -14 15 -33z"/>
<path d="M4275 5720 c-4 -6 -4 -23 0 -38 l8 -27 8 30 c9 30 -3 56 -16 35z"/>
<path d="M3117 5713 c-6 -11 4 -73 12 -73 7 0 6 68 -2 76 -3 3 -7 2 -10 -3z"/>
<path d="M3637 5712 c-3 -4 -2 -22 0 -39 4 -22 11 -33 22 -32 10 0 11 2 4 6
-16 6 -17 50 -1 55 8 3 6 7 -5 11 -9 3 -18 3 -20 -1z"/>
<path d="M1513 5703 c-15 -6 -18 -63 -3 -63 6 0 10 13 10 29 0 16 6 32 13 34
6 3 8 5 2 5 -5 0 -16 -2 -22 -5z"/>
<path d="M1574 5697 c18 -13 18 -14 -3 -20 -31 -8 -27 -37 5 -37 23 0 25 3 22
32 -2 24 -9 34 -23 36 -19 4 -20 3 -1 -11z m16 -37 c0 -5 -7 -10 -16 -10 -8 0
-12 5 -9 10 3 6 10 10 16 10 5 0 9 -4 9 -10z"/>
<path d="M1621 5671 l1 -36 9 33 c5 17 14 32 19 32 5 0 11 -15 13 -32 l5 -33
-2 35 c-1 29 -5 35 -23 36 -20 1 -23 -3 -22 -35z"/>
<path d="M1696 5695 c-3 -9 3 -19 17 -26 21 -12 21 -12 2 -20 -16 -6 -17 -8
-3 -8 26 -1 33 20 12 36 -16 12 -17 15 -4 23 13 8 13 10 -1 10 -9 0 -19 -7
-23 -15z"/>
<path d="M1804 5696 c-10 -26 0 -51 21 -51 16 0 20 7 20 30 0 33 -30 49 -41
21z m36 -27 c0 -10 -7 -19 -15 -19 -15 0 -21 31 -9 43 11 10 24 -3 24 -24z"/>
<path d="M1883 5703 c-15 -6 -18 -63 -3 -63 6 0 10 13 10 29 0 16 6 32 13 34
6 3 8 5 2 5 -5 0 -16 -2 -22 -5z"/>
<path d="M1921 5671 l1 -36 9 33 c5 17 14 32 19 32 6 0 11 -15 11 -32 l1 -33
7 30 c8 38 24 38 33 -1 6 -28 6 -27 5 6 -2 34 -3 35 -44 36 -43 0 -43 0 -42
-35z"/>
<path d="M2093 5703 c21 -6 22 -19 2 -27 -25 -9 -18 -36 10 -36 26 0 29 9 19
48 -4 14 -13 22 -28 21 -17 -1 -17 -2 -3 -6z m17 -43 c0 -5 -4 -10 -10 -10 -5
0 -10 5 -10 10 0 6 5 10 10 10 6 0 10 -4 10 -10z"/>
<path d="M2153 5675 c0 -22 2 -30 4 -17 2 12 2 30 0 40 -3 9 -5 -1 -4 -23z"/>
<path d="M2177 5699 c6 -8 13 -25 16 -39 4 -17 5 -15 4 9 -1 21 -8 36 -17 39
-12 4 -13 2 -3 -9z"/>
<path d="M2410 5691 c-13 -25 -3 -51 20 -51 23 0 36 36 20 55 -17 20 -27 19
-40 -4z m34 -8 c8 -21 -10 -41 -24 -27 -11 11 -3 44 10 44 4 0 11 -8 14 -17z"/>
<path d="M2493 5703 c21 -6 22 -19 2 -27 -25 -9 -18 -36 10 -36 18 0 25 5 25
19 0 34 -12 51 -34 50 -16 -1 -17 -2 -3 -6z m17 -43 c0 -5 -4 -10 -10 -10 -5
0 -10 5 -10 10 0 6 5 10 10 10 6 0 10 -4 10 -10z"/>
<path d="M2793 5675 c0 -22 2 -30 4 -17 2 12 2 30 0 40 -3 9 -5 -1 -4 -23z"/>
<path d="M2824 5674 c9 -28 12 -31 14 -14 4 26 -4 50 -16 50 -5 0 -4 -16 2
-36z"/>
<path d="M2858 5675 c2 -19 8 -35 13 -35 10 0 12 31 3 54 -11 28 -20 17 -16
-19z"/>
<path d="M2984 5681 c0 -21 7 -36 16 -38 10 -3 11 -2 3 4 -6 4 -13 22 -16 38
-4 27 -5 27 -3 -4z"/>
<path d="M3023 5675 c0 -22 2 -30 4 -17 2 12 2 30 0 40 -3 9 -5 -1 -4 -23z"/>
<path d="M3056 5695 c-3 -9 1 -18 9 -21 21 -8 19 -24 -2 -25 -11 0 -13 -2 -5
-6 7 -3 19 -2 27 1 19 7 8 36 -14 36 -14 1 -13 3 3 15 16 12 17 15 4 15 -9 0
-19 -7 -22 -15z"/>
<path d="M3164 5696 c-10 -26 0 -51 21 -51 16 0 20 7 20 30 0 33 -30 49 -41
21z m36 -27 c0 -10 -7 -19 -15 -19 -15 0 -21 31 -9 43 11 10 24 -3 24 -24z"/>
<path d="M3243 5703 c-15 -5 -18 -63 -3 -63 6 0 10 14 10 30 0 41 20 38 21 -2
l1 -33 9 33 c5 17 14 32 19 32 5 0 11 -15 13 -32 l5 -33 -2 35 c-1 31 -4 35
-31 36 -16 0 -36 -1 -42 -3z"/>
<path d="M3350 5691 c-14 -27 -2 -51 24 -50 16 1 17 2 4 6 -25 6 -23 23 2 23
18 0 19 3 10 20 -13 25 -26 25 -40 1z m30 -1 c0 -5 -4 -10 -10 -10 -5 0 -10 5
-10 10 0 6 5 10 10 10 6 0 10 -4 10 -10z"/>
<path d="M3423 5675 c0 -22 2 -30 4 -17 2 12 2 30 0 40 -3 9 -5 -1 -4 -23z"/>
<path d="M3506 5680 c7 -38 11 -46 19 -38 3 3 -2 20 -10 39 l-16 34 7 -35z"/>
<path d="M3538 5692 c-3 -12 -2 -20 2 -17 5 3 11 -4 15 -15 7 -23 25 -17 24 8
0 13 -2 13 -6 3 -4 -10 -10 -5 -18 15 -11 28 -12 28 -17 6z"/>
<path d="M2752 5670 c0 -19 2 -27 5 -17 2 9 2 25 0 35 -3 9 -5 1 -5 -18z"/>
<path d="M3612 5670 c0 -19 2 -27 5 -17 2 9 2 25 0 35 -3 9 -5 1 -5 -18z"/>
<path d="M4270 5620 c0 -11 4 -20 9 -20 11 0 22 26 14 34 -12 12 -23 5 -23
-14z"/>
<path d="M2600 5091 c0 -329 -1 -339 -20 -344 -19 -5 -19 -6 3 -46 12 -22 27
-41 32 -41 6 0 20 18 32 40 l21 40 -24 6 -24 6 0 339 c0 219 -4 339 -10 339
-6 0 -10 -120 -10 -339z"/>
<path d="M1122 4543 c2 -14 -5 -19 -35 -21 -47 -4 -39 -22 10 -22 30 0 34 -2
23 -15 -21 -26 13 -18 38 8 l22 23 -23 22 c-28 27 -39 28 -35 5z"/>
<path d="M1008 4463 c6 -2 18 -2 25 0 6 3 1 5 -13 5 -14 0 -19 -2 -12 -5z"/>
<path d="M1208 4463 c6 -2 18 -2 25 0 6 3 1 5 -13 5 -14 0 -19 -2 -12 -5z"/>
<path d="M1787 4457 c-3 -8 -2 -29 3 -48 l8 -34 2 30 c1 17 2 34 1 39 -1 5 4
13 11 17 10 7 9 9 -3 9 -9 0 -19 -6 -22 -13z"/>
<path d="M2290 4456 c0 -7 -9 -16 -21 -19 -16 -4 -20 -12 -17 -33 2 -15 10
-29 18 -32 12 -4 13 -2 3 9 -17 18 -16 49 1 49 8 0 17 -12 19 -27 2 -17 5 -10
6 20 0 26 -1 47 -4 47 -3 0 -5 -6 -5 -14z"/>
<path d="M2616 4455 c-3 -8 -13 -15 -21 -15 -21 0 -16 -62 5 -68 12 -4 13 -2
3 9 -17 18 -16 49 1 49 8 0 17 -12 19 -27 2 -17 5 -10 6 20 1 48 -3 58 -13 32z"/>
<path d="M3166 4455 c-3 -8 -12 -15 -20 -15 -21 0 -31 -39 -14 -56 26 -26 48
-6 48 42 0 46 -4 54 -14 29z m4 -34 c0 -17 -12 -41 -20 -41 -11 0 -21 30 -14
41 7 12 34 12 34 0z"/>
<path d="M954 4446 c-3 -7 -4 -42 -2 -77 3 -62 4 -64 36 -73 20 -5 44 -5 65 0
l32 10 0 74 c0 67 -2 75 -20 78 -20 4 -20 4 -1 -11 19 -14 19 -15 -2 -26 -11
-6 -30 -11 -42 -11 -12 0 -31 5 -42 11 -21 11 -21 12 -3 25 17 13 17 14 2 14
-10 0 -20 -6 -23 -14z"/>
<path d="M1157 4453 c-4 -3 -7 -37 -7 -75 0 -66 1 -69 28 -79 31 -12 87 -6
108 12 20 16 19 122 -1 139 -9 7 -18 10 -22 6 -3 -3 -1 -6 5 -6 7 0 12 -7 12
-15 0 -20 -58 -29 -95 -15 -29 11 -29 12 -11 26 15 11 16 14 5 14 -9 0 -19 -3
-22 -7z"/>
<path d="M1462 4453 c11 -3 18 -17 21 -41 l4 -37 1 37 c1 25 7 38 20 41 9 3
-1 5 -23 5 -22 0 -32 -2 -23 -5z"/>
<path d="M2372 4418 c-2 -46 -1 -48 26 -47 22 1 23 2 5 6 -18 3 -23 13 -26 46
l-4 42 -1 -47z"/>
<path d="M2700 4415 c0 -37 3 -45 18 -45 22 0 52 30 52 51 0 22 -21 39 -47 39
-21 0 -23 -5 -23 -45z m54 19 c8 -20 -11 -54 -29 -54 -10 0 -15 11 -15 35 0
28 4 35 19 35 10 0 22 -7 25 -16z"/>
<path d="M2931 4418 c1 -24 3 -36 5 -28 3 9 15 20 27 25 31 14 28 39 -5 43
-27 3 -28 2 -27 -40z m37 20 c-6 -18 -28 -21 -28 -4 0 9 7 16 16 16 9 0 14 -5
12 -12z"/>
<path d="M3337 4454 c-7 -7 2 -65 12 -76 3 -4 5 11 4 33 -1 42 -5 53 -16 43z"/>
<path d="M3385 4415 c0 -25 4 -45 10 -45 5 0 10 20 10 45 0 25 -4 45 -10 45
-5 0 -10 -20 -10 -45z"/>
<path d="M3716 4452 c-9 -14 10 -76 24 -80 12 -4 13 -2 3 9 -15 15 -17 46 -4
51 5 2 3 9 -4 15 -8 7 -16 9 -19 5z"/>
<path d="M1530 4410 c0 -16 5 -30 10 -30 6 0 10 14 10 30 0 17 -4 30 -10 30
-5 0 -10 -13 -10 -30z"/>
<path d="M1605 4430 c19 -9 19 -9 -3 -16 -29 -8 -25 -39 6 -40 19 -1 22 4 22
32 0 29 -3 34 -22 33 -22 0 -22 -1 -3 -9z m15 -34 c0 -11 -19 -15 -25 -6 -3 5
1 10 9 10 9 0 16 -2 16 -4z"/>
<path d="M1651 4408 c1 -30 2 -30 8 -9 9 35 29 37 34 4 4 -27 4 -27 6 5 1 28
-2 32 -24 32 -22 0 -25 -4 -24 -32z"/>
<path d="M1725 4431 c-3 -5 4 -16 16 -24 20 -14 20 -16 2 -26 -15 -9 -16 -10
-2 -11 9 0 20 7 23 16 9 22 8 24 -9 24 -18 0 -20 16 -2 23 7 3 6 6 -5 6 -9 1
-19 -3 -23 -8z"/>
<path d="M1834 4426 c-10 -26 0 -51 21 -51 16 0 20 7 20 30 0 33 -30 49 -41
21z m34 -18 c-2 -13 -7 -23 -13 -23 -5 0 -11 10 -13 23 -2 15 2 22 13 22 11 0
15 -7 13 -22z"/>
<path d="M1900 4410 c0 -16 5 -30 10 -30 6 0 10 14 10 30 0 17 -4 30 -10 30
-5 0 -10 -13 -10 -30z"/>
<path d="M1951 4408 c1 -30 2 -30 8 -9 9 35 29 37 34 4 4 -27 4 -27 6 5 1 28
-2 32 -24 32 -22 0 -25 -4 -24 -32z"/>
<path d="M2017 4432 c6 -4 13 -21 16 -37 4 -27 4 -27 6 8 1 29 -3 37 -16 37
-12 0 -14 -3 -6 -8z"/>
<path d="M2128 4433 c17 -7 15 -23 -3 -23 -17 0 -20 -25 -5 -35 6 -3 7 1 4 9
-3 9 -2 16 4 16 6 0 12 -6 15 -12 8 -23 20 1 13 27 -4 15 -13 25 -24 24 -10 0
-12 -3 -4 -6z"/>
<path d="M2182 4410 c0 -19 2 -27 5 -17 2 9 2 25 0 35 -3 9 -5 1 -5 -18z"/>
<path d="M2206 4433 c7 -4 14 -19 17 -33 4 -22 5 -21 4 4 -1 17 -9 31 -17 33
-10 3 -11 2 -4 -4z"/>
<path d="M2436 4424 c-7 -19 11 -57 26 -52 19 7 32 34 25 52 -8 21 -43 21 -51
0z m39 -4 c4 -6 1 -18 -6 -26 -11 -14 -13 -14 -21 0 -15 26 12 51 27 26z"/>
<path d="M2528 4434 c17 -8 15 -24 -3 -24 -16 0 -21 -25 -6 -34 5 -4 17 -3 26
0 24 9 16 58 -10 61 -11 2 -14 0 -7 -3z m12 -44 c0 -5 -4 -10 -10 -10 -5 0
-10 5 -10 10 0 6 5 10 10 10 6 0 10 -4 10 -10z"/>
<path d="M2782 4410 c0 -19 2 -27 5 -17 2 9 2 25 0 35 -3 9 -5 1 -5 -18z"/>
<path d="M2822 4410 c0 -19 2 -27 5 -17 2 9 2 25 0 35 -3 9 -5 1 -5 -18z"/>
<path d="M2848 4428 c5 -7 12 -22 15 -33 3 -13 5 -9 6 13 1 23 -3 32 -15 32
-12 0 -14 -3 -6 -12z"/>
<path d="M2888 4410 c2 -16 9 -30 14 -30 13 0 6 53 -8 57 -7 2 -9 -8 -6 -27z"/>
<path d="M3000 4410 c0 -16 5 -30 10 -30 6 0 10 14 10 30 0 17 -4 30 -10 30
-5 0 -10 -13 -10 -30z"/>
<path d="M3053 4424 c-8 -20 9 -49 28 -49 8 0 15 13 17 33 3 27 0 32 -18 32
-11 0 -23 -7 -27 -16z m35 -16 c-2 -13 -7 -23 -13 -23 -5 0 -11 10 -13 23 -2
15 2 22 13 22 11 0 15 -7 13 -22z"/>
<path d="M3203 4410 c2 -29 6 -35 25 -36 19 -1 22 3 21 35 -1 36 -1 36 -8 6
-3 -16 -11 -30 -16 -30 -5 0 -13 14 -17 30 -6 29 -6 29 -5 -5z"/>
<path d="M3273 4424 c-7 -19 7 -46 28 -53 9 -3 8 1 -4 13 -22 22 -22 32 1 45
16 10 16 10 -1 11 -10 0 -20 -7 -24 -16z"/>
<path d="M3431 4408 c2 -31 2 -31 6 -5 2 15 10 27 18 27 8 0 16 -12 18 -27 4
-26 4 -26 6 5 1 28 -2 32 -24 32 -22 0 -25 -4 -24 -32z"/>
<path d="M3500 4438 c0 -12 23 -58 29 -58 4 0 12 14 18 30 6 17 8 30 3 30 -4
0 -11 -10 -14 -22 l-6 -23 -15 25 c-8 14 -14 22 -15 18z"/>
<path d="M3577 4433 c-12 -11 -7 -40 8 -53 13 -10 18 -11 28 -1 9 10 8 11 -4
6 -10 -4 -20 -2 -24 4 -3 7 2 11 14 11 14 0 21 6 21 20 0 20 -28 28 -43 13z
m33 -13 c0 -5 -4 -10 -9 -10 -6 0 -13 5 -16 10 -3 6 1 10 9 10 9 0 16 -4 16
-10z"/>
<path d="M3640 4410 c0 -16 5 -30 10 -30 6 0 10 14 10 30 0 17 -4 30 -10 30
-5 0 -10 -13 -10 -30z"/>
<path d="M3678 4410 c2 -16 8 -30 13 -30 10 0 12 21 3 44 -10 27 -21 18 -16
-14z"/>
<path d="M3763 4424 c-7 -18 6 -45 25 -52 15 -5 33 33 26 52 -8 21 -43 21 -51
0z m35 -16 c-2 -13 -7 -23 -13 -23 -5 0 -11 10 -13 23 -2 15 2 22 13 22 11 0
15 -7 13 -22z"/>
<path d="M3842 4410 c0 -19 2 -27 5 -17 2 9 2 25 0 35 -3 9 -5 1 -5 -18z"/>
<path d="M3887 4420 c4 -14 7 -35 8 -47 0 -12 3 -19 7 -15 13 14 37 82 29 82
-5 0 -12 -10 -15 -22 l-6 -23 -16 25 -15 25 8 -25z"/>
<path d="M2600 3821 c0 -339 -1 -349 -20 -354 -19 -5 -19 -6 3 -46 12 -22 27
-41 32 -41 6 0 20 18 32 40 l21 40 -24 6 -24 6 0 349 c0 226 -4 349 -10 349
-6 0 -10 -123 -10 -349z"/>
<path d="M1385 3270 c6 -18 2 -20 -35 -20 -25 0 -39 -4 -35 -10 3 -5 22 -10
42 -10 27 0 34 -3 29 -15 -7 -21 7 -19 35 4 l24 19 -24 26 c-29 31 -45 34 -36
6z"/>
<path d="M2048 3183 c-2 -10 -1 -31 3 -48 l7 -30 1 28 c0 15 7 27 14 27 8 0 7
4 -3 10 -13 9 -13 11 0 20 13 8 13 10 -1 10 -9 0 -19 -8 -21 -17z"/>
<path d="M2880 3186 c0 -7 -9 -16 -21 -19 -16 -4 -20 -12 -17 -33 2 -15 10
-29 18 -32 12 -4 13 -2 3 9 -17 18 -16 49 1 49 9 0 16 -13 19 -32 3 -23 4 -16
5 20 1 28 0 52 -3 52 -3 0 -5 -6 -5 -14z"/>
<path d="M1222 3178 c-7 -7 -12 -39 -12 -75 0 -59 2 -64 26 -73 37 -14 76 -12
102 6 18 12 22 25 22 65 0 61 -14 89 -43 88 l-22 0 23 -9 c12 -5 22 -14 22
-19 0 -23 -76 -29 -106 -7 -18 14 -18 15 6 25 14 5 18 10 10 10 -9 1 -21 -4
-28 -11z"/>
<path d="M1422 3178 c-14 -14 -16 -116 -3 -136 14 -22 87 -27 116 -8 22 14 25
23 25 75 0 60 -16 88 -42 78 -8 -4 -7 -6 5 -6 21 -1 23 -27 1 -35 -38 -14 -94
-3 -94 19 0 8 8 16 18 18 13 4 13 5 2 6 -9 0 -21 -4 -28 -11z"/>
<path d="M1722 3183 c11 -3 18 -17 21 -41 l4 -37 1 37 c1 25 7 38 20 41 9 3
-1 5 -23 5 -22 0 -32 -2 -23 -5z"/>
<path d="M2632 3148 c-2 -46 -1 -48 26 -47 22 1 23 2 5 6 -18 3 -23 13 -26 46
l-4 42 -1 -47z"/>
<path d="M2960 3145 c0 -38 3 -45 19 -45 11 0 27 7 35 16 31 31 13 74 -31 74
-21 0 -23 -5 -23 -45z m55 15 c7 -23 -10 -50 -31 -50 -9 0 -14 12 -14 35 0 28
4 35 19 35 11 0 23 -9 26 -20z"/>
<path d="M3192 3148 c-2 -46 -1 -48 26 -47 22 1 23 2 5 6 -18 3 -23 13 -26 46
l-4 42 -1 -47z"/>
<path d="M3462 3150 c2 -28 8 -45 18 -48 12 -4 13 -2 3 9 -16 16 -17 46 -2 51
7 2 5 9 -6 18 -15 12 -16 10 -13 -30z"/>
<path d="M2533 3170 c-24 -10 -29 -34 -14 -59 10 -16 41 -8 41 11 0 10 -2 10
-9 -1 -5 -7 -14 -10 -20 -7 -18 11 -13 37 9 43 11 3 20 9 20 14 0 5 -1 9 -2 8
-2 0 -13 -4 -25 -9z"/>
<path d="M1801 3138 c2 -28 2 -29 6 -8 3 14 10 28 17 32 7 5 5 8 -6 8 -14 0
-18 -8 -17 -32z"/>
<path d="M1863 3163 c23 -6 22 -19 -4 -26 -22 -6 -22 -29 -1 -33 7 -1 8 0 2 3
-15 7 -12 23 4 23 8 0 17 -8 19 -17 3 -10 5 -1 6 20 1 32 -2 37 -21 36 -17 -1
-19 -2 -5 -6z"/>
<path d="M1911 3138 c1 -30 2 -30 8 -9 9 35 29 37 34 4 4 -27 4 -27 6 5 1 28
-2 32 -24 32 -22 0 -25 -4 -24 -32z"/>
<path d="M1990 3155 c0 -9 7 -18 16 -22 15 -6 15 -8 -2 -21 -18 -13 -18 -14 1
-10 24 4 34 38 11 38 -22 0 -20 17 2 23 13 4 11 5 -5 6 -15 1 -23 -5 -23 -14z"/>
<path d="M2095 3160 c-12 -20 4 -62 23 -58 23 4 24 61 0 66 -9 2 -19 -2 -23
-8z m33 -22 c-2 -13 -7 -23 -13 -23 -5 0 -11 10 -13 23 -2 15 2 22 13 22 11 0
15 -7 13 -22z"/>
<path d="M2171 3138 c2 -28 2 -29 6 -8 3 14 10 28 17 32 7 5 5 8 -6 8 -14 0
-18 -8 -17 -32z"/>
<path d="M2211 3137 c1 -29 2 -30 8 -8 10 36 31 38 32 4 1 -27 1 -27 8 -4 10
37 29 37 34 -1 l4 -33 1 36 2 36 -45 1 c-44 1 -45 1 -44 -31z"/>
<path d="M2388 3163 c17 -7 15 -23 -4 -23 -9 0 -14 -7 -12 -17 4 -20 18 -26
37 -14 19 12 6 61 -17 60 -10 0 -12 -3 -4 -6z m12 -43 c0 -5 -4 -10 -10 -10
-5 0 -10 5 -10 10 0 6 5 10 10 10 6 0 10 -4 10 -10z"/>
<path d="M2441 3138 c2 -30 2 -31 6 -5 5 34 30 36 36 2 4 -23 4 -23 3 2 -1 21
-7 29 -23 31 -20 3 -23 -1 -22 -30z"/>
<path d="M2701 3156 c-9 -11 -10 -20 -1 -36 12 -23 28 -23 43 2 22 34 -17 65
-42 34z m34 -21 c0 -10 -5 -20 -11 -22 -13 -4 -27 24 -18 38 9 15 29 4 29 -16z"/>
<path d="M2795 3160 c19 -9 19 -9 -2 -16 -23 -6 -31 -28 -14 -38 5 -4 17 -3
26 0 24 9 16 58 -10 61 l-20 3 20 -10z m10 -40 c-3 -5 -10 -10 -16 -10 -5 0
-9 5 -9 10 0 6 7 10 16 10 8 0 12 -4 9 -10z"/>
<path d="M3081 3138 c2 -31 2 -31 6 -5 2 15 10 27 18 27 8 0 16 -12 18 -27 4
-26 4 -26 6 5 1 28 -2 32 -24 32 -22 0 -25 -4 -24 -32z"/>
<path d="M3146 3159 c7 -8 14 -23 17 -34 4 -13 5 -9 4 9 -1 16 -9 32 -17 34
-12 4 -13 2 -4 -9z"/>
<path d="M3264 3156 c-9 -24 0 -51 18 -54 19 -4 35 38 23 57 -9 16 -35 13 -41
-3z m34 -18 c-2 -13 -7 -23 -13 -23 -5 0 -11 10 -13 23 -2 15 2 22 13 22 11 0
15 -7 13 -22z"/>
<path d="M3334 3156 c-10 -25 0 -51 21 -54 18 -2 19 -2 3 8 -10 6 -18 19 -18
30 0 10 8 21 18 23 16 4 16 5 -1 6 -10 0 -20 -5 -23 -13z"/>
<path d="M3413 3163 c23 -6 22 -19 -4 -26 -22 -6 -22 -29 -1 -33 7 -1 8 0 2 3
-15 7 -12 23 4 23 8 0 17 -8 19 -17 3 -10 5 -1 6 20 1 32 -2 37 -21 36 -17 -1
-19 -2 -5 -6z"/>
<path d="M3512 3140 c0 -19 2 -27 5 -17 2 9 2 25 0 35 -3 9 -5 1 -5 -18z"/>
<path d="M3544 3156 c-9 -24 0 -51 18 -54 19 -4 35 38 23 57 -9 16 -35 13 -41
-3z m34 -18 c-2 -13 -7 -23 -13 -23 -5 0 -11 10 -13 23 -2 15 2 22 13 22 11 0
15 -7 13 -22z"/>
<path d="M3611 3138 c1 -30 2 -30 8 -9 9 35 29 37 34 4 4 -27 4 -27 6 5 1 28
-2 32 -24 32 -22 0 -25 -4 -24 -32z"/>
<path d="M3687 3164 c-10 -10 4 -34 22 -34 14 -1 13 -3 -3 -15 -16 -12 -17
-15 -4 -15 26 0 30 28 5 41 -21 12 -21 12 -2 20 15 5 16 8 4 8 -9 1 -18 -2
-22 -5z"/>
<path d="M2590 2441 c0 -448 0 -459 -20 -464 -19 -5 -19 -6 3 -46 12 -22 25
-41 30 -41 10 0 47 61 47 78 0 6 -9 12 -20 12 -20 0 -20 7 -20 460 0 300 -3
460 -10 460 -7 0 -10 -160 -10 -459z"/>
<path d="M1434 1775 c4 -12 -3 -15 -29 -15 -18 0 -37 -4 -40 -10 -4 -6 10 -10
35 -10 37 0 41 -2 35 -20 -9 -28 7 -25 36 6 l24 25 -25 19 c-30 24 -44 25 -36
5z"/>
<path d="M2102 1693 c-4 -10 -5 -34 -1 -53 5 -28 7 -30 8 -9 0 14 6 30 13 37
9 9 9 12 -1 12 -11 0 -11 3 -1 15 8 10 9 15 2 15 -6 0 -15 -8 -20 -17z"/>
<path d="M1318 1693 c12 -2 30 -2 40 0 9 3 -1 5 -23 4 -22 0 -30 -2 -17 -4z"/>
<path d="M1518 1693 c12 -2 30 -2 40 0 9 3 -1 5 -23 4 -22 0 -30 -2 -17 -4z"/>
<path d="M1773 1693 c12 -3 17 -16 19 -46 1 -40 1 -41 5 -7 2 19 11 41 20 48
14 10 11 12 -23 11 -21 -1 -31 -3 -21 -6z"/>
<path d="M2930 1691 c0 -5 -9 -11 -21 -14 -30 -8 -23 -61 9 -65 20 -3 22 1 22
42 0 25 -2 46 -5 46 -3 0 -5 -4 -5 -9z m0 -46 c0 -16 -6 -25 -15 -25 -15 0
-21 31 -8 43 13 14 23 6 23 -18z"/>
<path d="M3010 1655 c0 -40 2 -45 23 -45 44 0 62 43 31 74 -8 9 -24 16 -35 16
-16 0 -19 -7 -19 -45z m50 20 c16 -19 3 -55 -21 -55 -15 0 -19 7 -19 35 0 37
18 47 40 20z"/>
<path d="M3240 1654 c0 -44 1 -45 28 -42 22 2 27 8 28 33 2 43 -5 55 -32 55
-22 0 -24 -4 -24 -46z m45 26 c3 -6 -1 -13 -10 -16 -19 -8 -30 0 -20 15 8 14
22 14 30 1z m5 -45 c0 -8 -9 -15 -20 -15 -20 0 -26 11 -13 23 12 13 33 7 33
-8z"/>
<path d="M1267 1683 c-12 -11 -8 -128 5 -141 7 -7 35 -12 63 -12 28 0 56 5 63
12 17 17 16 123 -2 137 -11 9 -14 8 -12 -5 1 -20 -39 -34 -79 -27 -20 4 -25
10 -22 24 5 19 -4 25 -16 12z"/>
<path d="M1467 1683 c-12 -11 -8 -128 5 -141 7 -7 35 -12 63 -12 28 0 56 5 63
12 17 17 16 123 -2 137 -12 10 -13 9 -9 -7 4 -15 -2 -21 -24 -25 -47 -9 -85 3
-80 24 5 19 -4 25 -16 12z"/>
<path d="M2682 1653 c-2 -41 -1 -43 26 -42 22 1 23 2 5 6 -17 3 -23 13 -26 41
l-4 37 -1 -42z"/>
<path d="M1913 1674 c23 -7 22 -20 -4 -27 -27 -7 -20 -31 10 -35 20 -3 22 0
19 30 -2 24 -8 33 -23 35 -16 1 -16 1 -2 -3z m17 -44 c0 -5 -7 -10 -16 -10 -8
0 -12 5 -9 10 3 6 10 10 16 10 5 0 9 -4 9 -10z"/>
<path d="M1973 1673 c-7 -2 -13 -19 -12 -36 l1 -32 9 33 c5 17 14 32 19 32 5
0 11 -15 13 -32 4 -32 4 -32 5 5 2 36 -5 43 -35 30z"/>
<path d="M2043 1664 c-4 -10 1 -20 13 -27 17 -10 17 -11 -1 -18 -16 -6 -17 -8
-3 -8 26 -1 33 20 12 36 -16 12 -17 15 -4 23 10 7 11 10 2 10 -7 0 -15 -7 -19
-16z"/>
<path d="M2151 1666 c-18 -21 -9 -51 14 -51 15 0 20 7 20 29 0 33 -16 44 -34
22z m29 -21 c0 -16 -6 -25 -15 -25 -15 0 -21 31 -8 43 13 14 23 6 23 -18z"/>
<path d="M2273 1673 c-7 -3 -13 -19 -12 -36 l1 -32 9 33 c5 17 14 32 19 32 6
0 10 -15 11 -32 l1 -33 9 33 c5 17 14 32 19 32 5 0 11 -15 13 -32 l5 -33 -2
35 c-1 31 -4 35 -31 36 -16 0 -36 -1 -42 -3z"/>
<path d="M2440 1670 c13 -9 13 -12 -2 -21 -27 -15 -22 -39 7 -39 18 0 25 5 25
19 0 31 -11 51 -29 51 -14 0 -14 -2 -1 -10z m10 -40 c0 -5 -4 -10 -10 -10 -5
0 -10 5 -10 10 0 6 5 10 10 10 6 0 10 -4 10 -10z"/>
<path d="M2503 1673 c-7 -2 -12 -19 -12 -36 l1 -32 7 29 c3 17 11 30 16 30 6
0 13 -13 17 -30 6 -28 6 -28 5 5 -2 35 -11 44 -34 34z"/>
<path d="M2570 1665 c-17 -21 -8 -50 18 -53 12 -2 22 1 22 6 0 6 -9 8 -20 5
-13 -3 -20 0 -20 8 0 22 17 42 29 35 6 -4 11 -2 11 3 0 16 -26 13 -40 -4z"/>
<path d="M2751 1661 c-14 -26 -4 -51 20 -51 24 0 36 27 22 48 -15 24 -31 25
-42 3z m36 -7 c8 -20 -13 -42 -27 -28 -12 12 -3 44 11 44 5 0 12 -7 16 -16z"/>
<path d="M2845 1667 c17 -13 17 -14 -4 -20 -30 -8 -27 -37 4 -37 18 0 25 5 25
19 0 31 -11 51 -28 51 -13 0 -13 -2 3 -13z m5 -37 c0 -5 -5 -10 -11 -10 -5 0
-7 5 -4 10 3 6 8 10 11 10 2 0 4 -4 4 -10z"/>
<path d="M3143 1673 c-7 -2 -12 -19 -12 -36 l1 -32 7 29 c3 17 11 30 16 30 6
0 13 -13 17 -30 6 -28 6 -28 5 5 -2 35 -11 44 -34 34z"/>
<path d="M3204 1645 c6 -19 13 -30 14 -25 6 16 -7 60 -17 60 -4 0 -3 -16 3
-35z"/>
<path d="M3321 1641 c1 -28 3 -30 6 -11 3 14 9 30 14 36 5 7 3 11 -6 11 -11 0
-15 -11 -14 -36z"/>
<path d="M3390 1670 c13 -9 13 -12 -2 -21 -27 -15 -22 -39 7 -39 18 0 25 5 25
19 0 31 -11 51 -29 51 -14 0 -14 -2 -1 -10z m10 -40 c0 -5 -4 -10 -10 -10 -5
0 -10 5 -10 10 0 6 5 10 10 10 6 0 10 -4 10 -10z"/>
<path d="M3453 1673 c-7 -2 -12 -19 -12 -36 l1 -32 7 29 c3 17 11 30 16 30 6
0 13 -13 17 -30 6 -28 6 -28 5 5 -2 35 -11 44 -34 34z"/>
<path d="M3520 1665 c-17 -21 -8 -50 18 -53 12 -2 22 1 22 6 0 6 -9 8 -20 5
-13 -3 -20 0 -20 8 0 22 17 42 29 35 6 -4 11 -2 11 3 0 16 -26 13 -40 -4z"/>
<path d="M1852 1640 c0 -19 2 -27 5 -17 2 9 2 25 0 35 -3 9 -5 1 -5 -18z"/>
<path d="M2222 1640 c0 -19 2 -27 5 -17 2 9 2 25 0 35 -3 9 -5 1 -5 -18z"/>
<path d="M2572 1245 c4 -183 5 -185 100 -194 l63 -6 3 -122 c2 -118 2 -123
-18 -123 -11 0 -20 -3 -20 -6 0 -12 44 -84 51 -84 8 0 49 67 49 81 0 5 -9 9
-20 9 -19 0 -20 7 -20 118 0 143 -5 152 -93 152 -45 0 -58 4 -67 19 -5 11 -10
84 -10 165 0 97 -4 146 -11 146 -7 0 -9 -49 -7 -155z"/>
<path d="M1198 603 c26 -10 10 -23 -28 -23 -22 0 -40 -4 -40 -10 0 -5 18 -10
40 -10 41 0 49 -7 28 -28 -23 -23 10 -13 39 12 27 24 28 24 9 45 -11 12 -29
21 -40 20 -12 0 -15 -3 -8 -6z"/>
<path d="M1872 513 c-4 -10 -5 -34 -1 -53 l6 -35 2 33 c0 18 6 32 14 32 8 0 7
4 -3 10 -13 9 -13 11 0 20 9 6 11 10 3 10 -7 0 -16 -8 -21 -17z"/>
<path d="M2370 516 c0 -7 -9 -16 -21 -19 -30 -8 -23 -61 9 -65 20 -3 22 0 22
47 0 28 -2 51 -5 51 -3 0 -5 -6 -5 -14z m0 -51 c0 -26 -14 -33 -25 -15 -9 14
1 40 15 40 5 0 10 -11 10 -25z"/>
<path d="M2700 516 c0 -7 -9 -16 -21 -19 -30 -8 -23 -61 9 -65 20 -3 22 0 22
47 0 28 -2 51 -5 51 -3 0 -5 -6 -5 -14z m0 -51 c0 -16 -6 -25 -15 -25 -9 0
-15 9 -15 25 0 16 6 25 15 25 9 0 15 -9 15 -25z"/>
<path d="M3730 515 c0 -8 -9 -15 -20 -15 -12 0 -22 -9 -26 -24 -8 -32 2 -46
32 -46 22 0 24 4 24 50 0 28 -2 50 -5 50 -3 0 -5 -7 -5 -15z m0 -44 c0 -11 -5
-23 -11 -27 -15 -9 -33 12 -26 30 9 23 37 20 37 -3z"/>
<path d="M1042 508 c-7 -7 -12 -39 -12 -73 0 -34 5 -66 12 -73 18 -18 103 -15
123 5 21 21 17 129 -6 144 -21 13 -103 11 -117 -3z m113 -18 c0 -19 -80 -26
-101 -9 -22 18 2 30 56 27 32 -2 45 -7 45 -18z"/>
<path d="M1242 508 c-7 -7 -12 -39 -12 -75 0 -71 11 -83 75 -83 64 0 75 12 75
85 0 53 -3 66 -19 75 -27 14 -104 13 -119 -2z m113 -18 c0 -19 -80 -26 -101
-9 -22 18 2 30 56 27 32 -2 45 -7 45 -18z"/>
<path d="M1542 513 c12 -3 18 -17 21 -46 l4 -42 1 42 c2 30 7 43 20 46 9 3 -1
5 -23 5 -22 0 -32 -2 -23 -5z"/>
<path d="M2452 478 c-2 -46 -1 -48 26 -47 22 1 23 2 5 6 -18 3 -23 13 -26 46
l-4 42 -1 -47z"/>
<path d="M2781 473 c1 -27 4 -38 6 -26 2 13 13 24 26 26 l22 4 -22 2 c-13 0
-23 7 -23 15 0 8 10 17 23 19 19 4 18 4 -5 6 -27 1 -28 -1 -27 -46z"/>
<path d="M2978 509 c-2 -6 -2 -26 0 -45 3 -24 9 -34 21 -33 10 0 11 2 4 6 -15
5 -18 50 -4 55 5 2 3 8 -4 15 -9 9 -15 9 -17 2z"/>
<path d="M3032 508 c-27 -27 -7 -78 29 -78 10 0 20 4 23 9 3 4 -5 6 -18 4 -17
-4 -26 0 -30 15 -10 31 4 54 30 49 13 -2 21 0 18 4 -8 13 -38 11 -52 -3z"/>
<path d="M3238 509 c-2 -6 -2 -26 0 -45 3 -24 9 -34 21 -33 10 0 11 2 4 6 -15
5 -18 50 -4 55 5 2 3 8 -4 15 -9 9 -15 9 -17 2z"/>
<path d="M3602 508 c-19 -19 -15 -66 7 -73 32 -10 51 5 51 40 0 41 -32 59 -58
33z m43 -33 c0 -23 -4 -30 -20 -30 -21 0 -31 25 -21 51 11 28 41 12 41 -21z"/>
<path d="M3880 475 c0 -40 2 -45 23 -45 29 0 47 18 47 45 0 27 -18 45 -47 45
-21 0 -23 -5 -23 -45z m53 13 c8 -12 7 -21 -2 -32 -23 -28 -41 -19 -41 20 0
28 4 35 16 32 9 -2 22 -10 27 -20z"/>
<path d="M4038 509 c-2 -6 -2 -26 0 -45 3 -24 9 -34 21 -33 10 0 11 2 4 6 -15
5 -18 50 -4 55 5 2 3 8 -4 15 -9 9 -15 9 -17 2z"/>
<path d="M4386 511 c-4 -5 -3 -23 0 -38 l7 -28 8 30 c8 29 -3 56 -15 36z"/>
<path d="M1610 465 c0 -19 5 -35 10 -35 6 0 10 13 10 29 0 16 6 32 13 34 6 3
2 6 -10 6 -20 1 -23 -4 -23 -34z"/>
<path d="M1683 494 c23 -7 22 -20 -4 -27 -27 -7 -20 -31 10 -35 20 -3 22 0 19
30 -2 24 -8 33 -23 35 -16 1 -16 1 -2 -3z m17 -44 c0 -5 -7 -10 -15 -10 -8 0
-15 5 -15 10 0 6 7 10 15 10 8 0 15 -4 15 -10z"/>
<path d="M1731 460 c1 -34 1 -34 8 -6 9 42 29 44 34 4 l4 -33 1 37 c2 35 0 38
-23 36 -22 -2 -25 -7 -24 -38z"/>
<path d="M1806 484 c-4 -11 1 -18 14 -21 25 -7 26 -20 3 -26 -16 -4 -16 -5 -1
-6 24 -2 34 20 15 34 -22 16 -21 22 1 28 13 4 12 5 -4 6 -12 0 -25 -6 -28 -15z"/>
<path d="M1911 460 c1 -27 3 -29 6 -10 2 14 11 30 20 37 13 10 13 12 -6 10
-17 -1 -21 -7 -20 -37z"/>
<path d="M1964 486 c-10 -26 0 -51 21 -51 16 0 20 7 20 30 0 33 -30 49 -41 21z
m34 -18 c-5 -32 -28 -35 -28 -4 0 17 5 26 16 26 10 0 14 -7 12 -22z"/>
<path d="M2031 461 c1 -35 2 -35 8 -7 9 43 31 45 32 4 l1 -33 7 29 c9 42 29
44 34 4 l5 -33 -2 35 c-1 34 -2 35 -43 36 l-43 1 1 -36z"/>
<path d="M2203 493 c21 -5 23 -23 2 -23 -8 0 -15 -9 -15 -20 0 -15 7 -20 25
-20 18 0 25 5 25 19 0 34 -12 51 -34 50 -16 -1 -17 -2 -3 -6z m17 -43 c0 -5
-4 -10 -10 -10 -5 0 -10 5 -10 10 0 6 5 10 10 10 6 0 10 -4 10 -10z"/>
<path d="M2262 463 c1 -37 1 -37 5 -5 3 18 10 32 18 32 8 0 16 -14 18 -32 l5
-33 -2 35 c-1 28 -5 36 -23 38 -21 3 -23 -1 -21 -35z"/>
<path d="M2520 485 c-16 -19 -3 -55 20 -55 21 0 33 25 25 51 -8 23 -28 25 -45
4z m37 -11 c8 -21 -13 -42 -28 -27 -13 13 -5 43 11 43 6 0 13 -7 17 -16z"/>
<path d="M2610 489 l25 -11 -22 -9 c-32 -12 -30 -39 3 -39 23 0 25 3 22 33 -2
26 -8 32 -28 34 l-25 3 25 -11z m15 -39 c-3 -5 -10 -10 -16 -10 -5 0 -9 5 -9
10 0 6 7 10 16 10 8 0 12 -4 9 -10z"/>
<path d="M2863 493 c23 -6 22 -19 -4 -26 -26 -7 -20 -31 9 -35 19 -3 22 1 22
32 0 31 -3 36 -22 35 -17 -1 -19 -2 -5 -6z m17 -43 c0 -5 -7 -10 -16 -10 -8 0
-12 5 -9 10 3 6 10 10 16 10 5 0 9 -4 9 -10z"/>
<path d="M2919 484 c-15 -18 -2 -48 22 -50 8 0 9 1 2 3 -27 10 -23 44 7 56 13
4 12 6 -1 6 -9 1 -22 -6 -30 -15z"/>
<path d="M3100 481 c0 -35 12 -51 36 -51 21 0 24 5 24 35 0 19 -4 35 -10 35
-5 0 -10 -13 -10 -30 0 -16 -4 -30 -10 -30 -5 0 -10 14 -10 30 0 17 -4 30 -10
30 -5 0 -10 -9 -10 -19z"/>
<path d="M3180 480 c0 -11 7 -20 15 -20 21 0 19 -18 -2 -23 -16 -4 -16 -5 -1
-6 24 -2 34 20 15 34 -22 16 -21 22 1 28 13 4 11 5 -5 6 -17 1 -23 -5 -23 -19z"/>
<path d="M3285 481 c-14 -44 24 -67 48 -29 8 12 7 21 -2 32 -18 21 -38 20 -46
-3z m35 -16 c0 -26 -14 -33 -25 -15 -9 14 1 40 15 40 5 0 10 -11 10 -25z"/>
<path d="M3362 462 l1 -37 4 33 c5 40 23 42 23 2 0 -16 5 -30 10 -30 6 0 10
14 10 30 0 40 18 38 23 -2 l4 -33 1 36 c2 36 2 37 -38 37 -40 1 -40 1 -38 -36z"/>
<path d="M3477 494 c-4 -4 -7 -18 -7 -31 0 -26 26 -41 42 -25 8 8 5 9 -11 5
-12 -3 -21 -1 -21 6 0 6 9 11 21 11 14 0 19 5 17 17 -3 19 -29 29 -41 17z m28
-14 c3 -5 -1 -10 -9 -10 -9 0 -16 5 -16 10 0 6 4 10 9 10 6 0 13 -4 16 -10z"/>
<path d="M3541 460 c1 -27 3 -29 6 -10 2 14 11 30 20 37 13 10 13 12 -6 10
-17 -1 -21 -7 -20 -37z"/>
<path d="M3761 481 c-13 -22 9 -57 30 -48 10 4 9 6 -3 6 -26 1 -22 21 3 21 15
0 19 4 15 16 -3 9 -6 18 -6 20 0 13 -31 1 -39 -15z m34 -1 c3 -5 -1 -10 -9
-10 -9 0 -16 5 -16 10 0 6 4 10 9 10 6 0 13 -4 16 -10z"/>
<path d="M3831 461 c1 -28 3 -30 6 -11 3 14 9 30 14 36 5 7 3 11 -6 11 -11 0
-15 -11 -14 -36z"/>
<path d="M3983 493 c21 -5 23 -23 2 -23 -8 0 -15 -9 -15 -20 0 -15 7 -20 25
-20 18 0 25 5 25 19 0 34 -12 51 -34 50 -16 -1 -17 -2 -3 -6z m17 -43 c0 -5
-4 -10 -10 -10 -5 0 -10 5 -10 10 0 6 5 10 10 10 6 0 10 -4 10 -10z"/>
<path d="M4103 493 c23 -6 22 -19 -4 -26 -26 -7 -20 -31 9 -35 19 -3 22 1 22
32 0 31 -3 36 -22 35 -17 -1 -19 -2 -5 -6z m17 -43 c0 -5 -7 -10 -16 -10 -8 0
-12 5 -9 10 3 6 10 10 16 10 5 0 9 -4 9 -10z"/>
<path d="M4383 422 c-3 -14 -15 -22 -37 -25 -17 -2 7 -4 54 -4 47 0 66 2 43 4
-30 3 -40 8 -37 18 3 7 0 16 -6 20 -7 4 -14 -1 -17 -13z"/>
</g>
</svg>
