<?xml version="1.0" standalone="no"?>
<!DOCTYPE svg PUBLIC "-//W3C//DTD SVG 20010904//EN"
 "http://www.w3.org/TR/2001/REC-SVG-20010904/DTD/svg10.dtd">
<svg version="1.0" xmlns="http://www.w3.org/2000/svg"
 width="1419.000000pt" height="2000.000000pt" viewBox="0 0 1419.000000 2000.000000"
 preserveAspectRatio="xMidYMid meet">

<g transform="translate(0.000000,2000.000000) scale(0.100000,-0.100000)"
fill="#000000" stroke="none">
<path d="M6855 19694 c-16 -2 -79 -9 -140 -15 -423 -41 -893 -182 -1351 -405
-392 -190 -661 -381 -955 -674 -210 -209 -367 -408 -506 -640 -181 -303 -322
-621 -456 -1035 -64 -195 -78 -246 -217 -760 -127 -467 -253 -787 -395 -1000
-30 -44 -94 -126 -144 -183 -111 -126 -133 -162 -97 -162 25 0 152 56 200 88
26 18 49 32 51 32 2 0 -29 -60 -69 -132 -205 -374 -276 -633 -276 -1000 0
-229 31 -423 99 -628 116 -346 307 -605 516 -700 33 -15 74 -38 90 -52 88 -74
309 -193 430 -231 253 -79 482 -100 720 -63 148 22 233 48 296 89 55 36 58 50
34 131 -23 76 -20 293 5 408 44 197 140 357 257 429 38 24 143 34 140 15 -1
-6 6 -10 15 -10 10 1 16 -2 13 -5 -6 -11 75 -52 87 -44 7 4 8 1 3 -7 -6 -10
-4 -12 9 -7 10 4 15 3 11 -3 -8 -12 134 -82 153 -75 7 2 11 1 8 -4 -9 -13 254
-121 409 -167 28 -8 81 -24 118 -36 38 -11 77 -18 88 -15 10 3 17 2 14 -3 -6
-10 50 -21 70 -14 8 4 15 2 15 -4 0 -5 20 -13 44 -16 52 -8 52 -9 62 -149 4
-53 10 -94 15 -91 4 2 4 -10 -2 -28 -5 -18 -9 -34 -9 -35 0 -1 -15 -13 -33
-27 -18 -14 -62 -33 -98 -41 -35 -9 -72 -19 -81 -21 -13 -4 -19 4 -24 33 -20
111 -110 129 -208 44 -31 -27 -58 -41 -88 -46 -193 -29 -350 -59 -424 -81 -49
-14 -143 -41 -209 -60 -255 -73 -491 -160 -611 -224 -133 -72 -281 -206 -377
-344 -79 -113 -239 -385 -273 -466 -17 -41 -66 -133 -109 -205 -73 -124 -139
-255 -305 -605 -239 -502 -466 -928 -641 -1203 -48 -74 -49 -113 -4 -192 39
-71 108 -165 183 -252 75 -86 293 -224 577 -366 159 -79 505 -187 600 -187 29
0 29 0 10 -46 l-15 -36 -695 3 c-383 1 -698 5 -700 9 -2 3 28 86 66 185 87
223 149 398 149 418 0 9 -4 19 -10 22 -11 7 -13 2 -61 -125 -17 -47 -58 -150
-89 -230 -32 -80 -65 -170 -74 -200 -9 -30 -19 -60 -23 -66 -5 -7 -58 -13
-138 -17 -84 -3 -146 -10 -175 -21 -64 -23 -138 -90 -166 -150 -21 -45 -24
-66 -24 -179 0 -71 6 -160 14 -200 15 -73 29 -151 66 -357 11 -63 27 -153 36
-200 8 -47 21 -119 29 -160 16 -82 35 -185 60 -330 23 -131 40 -224 66 -367
13 -67 20 -125 17 -129 -4 -3 -35 3 -70 15 -87 28 -439 128 -518 147 -264 62
-484 79 -658 50 -228 -38 -410 -129 -579 -289 -356 -337 -476 -859 -319 -1384
122 -408 329 -664 678 -839 40 -20 132 -75 203 -122 172 -113 179 -117 413
-256 206 -122 515 -296 662 -373 195 -103 638 -325 786 -396 135 -64 334 -147
353 -147 5 0 14 -7 21 -15 10 -12 8 -22 -14 -55 -110 -167 -163 -442 -153
-798 4 -157 9 -203 30 -285 46 -173 128 -338 203 -409 16 -14 70 -56 119 -92
50 -36 95 -69 100 -73 115 -89 311 -133 620 -141 235 -5 351 7 576 59 202 47
559 177 904 329 145 64 475 176 634 215 l64 16 26 -24 c49 -46 89 -59 205 -67
86 -6 123 -13 166 -32 65 -30 227 -84 290 -97 41 -9 276 -69 470 -120 96 -25
439 -144 495 -170 49 -24 322 -134 610 -247 376 -146 798 -205 1137 -158 209
28 325 67 428 140 30 21 77 55 104 74 111 78 173 151 225 265 109 235 141 478
106 805 -31 290 -96 458 -247 639 -48 57 -63 82 -55 89 7 5 62 28 122 52 420
163 574 231 938 415 451 227 769 398 1022 550 39 23 144 86 235 140 91 55 212
131 270 171 58 39 139 88 180 109 282 142 466 323 590 579 153 318 204 652
150 976 -15 85 -70 250 -115 340 -80 163 -205 314 -351 423 -305 229 -650 273
-1156 147 -219 -55 -579 -164 -880 -268 -90 -30 -141 -43 -147 -37 -6 7 -4 35
5 80 9 39 19 95 24 125 5 30 19 105 30 165 12 61 25 137 31 170 5 33 14 80 19
105 6 25 19 97 31 160 11 63 24 138 30 165 8 45 53 293 95 530 9 50 23 122 31
160 20 99 29 314 14 367 -15 54 -72 133 -114 159 -55 33 -128 52 -231 58
l-100 6 -36 105 c-36 103 -95 258 -164 435 -20 49 -36 98 -36 108 0 11 19 28
47 45 68 39 163 134 163 162 0 48 -295 771 -460 1127 -136 291 -364 754 -435
883 -83 150 -351 556 -450 685 -125 161 -285 295 -453 379 -176 89 -536 187
-882 241 -291 46 -494 100 -547 146 -66 57 -151 50 -224 -18 -26 -24 -52 -57
-59 -72 l-12 -29 -54 25 c-30 14 -61 22 -69 19 -8 -3 -15 -2 -15 2 0 12 -101
42 -114 35 -6 -3 -8 -3 -4 2 10 10 -50 48 -66 42 -8 -3 -11 33 -12 124 -1 110
1 129 15 133 36 10 107 19 130 17 16 -2 21 1 16 9 -5 8 -2 10 11 7 26 -7 147
16 137 26 -4 5 3 6 17 2 37 -9 430 111 438 134 2 6 9 8 16 5 8 -3 21 2 30 11
9 9 16 14 16 10 0 -3 10 0 23 7 12 7 25 12 28 13 21 1 107 50 102 58 -3 5 0 7
8 5 15 -6 129 50 129 62 0 4 6 7 13 7 7 0 27 9 43 20 16 11 58 40 94 63 36 23
64 47 62 52 -2 6 4 8 12 5 8 -3 20 1 27 9 7 8 39 33 71 56 32 22 58 44 58 49
0 24 46 16 123 -21 208 -101 347 -288 378 -506 9 -66 2 -165 -17 -226 -5 -17
6 -18 143 -18 162 0 332 23 475 64 59 17 88 22 106 15 65 -25 215 -1 357 56
153 62 493 232 563 281 37 26 95 77 129 113 35 35 65 63 67 60 5 -5 -27 -150
-48 -214 -14 -45 -42 -94 -92 -162 -20 -27 -10 -46 19 -37 71 21 261 185 342
294 85 114 109 151 149 229 52 101 73 162 122 348 20 76 42 163 50 193 81 308
49 757 -85 1190 -105 341 -209 544 -606 1185 -51 83 -104 171 -117 196 -14 25
-46 79 -70 120 -119 197 -236 428 -408 804 -113 248 -220 465 -285 580 -30 54
-55 99 -55 101 0 1 -29 49 -63 106 -214 347 -431 609 -666 803 -312 258 -625
409 -891 431 -71 6 -105 16 -200 56 -257 111 -471 183 -664 224 -178 38 -543
63 -681 48z m85 -44 c-19 -5 -89 -18 -155 -30 -66 -12 -181 -37 -255 -56 -147
-37 -432 -125 -426 -132 2 -2 51 6 108 17 254 49 556 81 764 81 407 0 716 -90
904 -264 69 -64 59 -69 -95 -49 -264 33 -574 -2 -860 -98 -141 -48 -424 -175
-445 -200 -3 -3 -21 -14 -40 -24 -33 -17 -196 -126 -249 -167 -37 -28 -12 -21
59 18 108 59 298 139 430 179 184 57 316 82 497 96 279 21 448 -32 466 -147 7
-41 -19 -154 -34 -154 -5 0 -9 -6 -9 -13 0 -43 -195 -265 -365 -416 -33 -29
-101 -92 -150 -139 -97 -93 -226 -209 -272 -245 -15 -12 -39 -32 -53 -44 -14
-13 -28 -23 -32 -23 -5 0 -8 -5 -8 -11 0 -27 166 30 300 103 241 131 483 349
653 590 52 72 130 225 141 273 24 107 55 112 104 15 20 -40 37 -92 43 -135 10
-70 5 -214 -11 -290 -39 -187 -52 -241 -78 -320 -17 -49 -29 -91 -27 -93 5 -6
82 101 104 146 95 190 160 435 161 610 0 154 22 182 144 182 162 0 438 -182
621 -410 67 -83 127 -164 167 -225 58 -89 175 -315 217 -420 17 -44 35 -87 40
-95 4 -8 16 -41 26 -73 10 -31 19 -56 21 -54 6 6 -47 262 -70 337 -7 25 -26
88 -41 140 -65 221 -118 342 -237 536 -37 61 -71 126 -75 144 l-6 33 34 -7
c88 -17 213 -108 319 -232 14 -16 50 -59 80 -94 30 -36 57 -67 60 -70 3 -3 32
-41 66 -85 70 -92 127 -180 204 -315 30 -52 57 -97 60 -100 15 -14 202 -409
265 -560 15 -36 35 -83 45 -105 10 -22 33 -74 51 -115 17 -41 49 -112 70 -158
22 -46 39 -87 39 -93 0 -5 4 -9 9 -9 5 0 12 -11 15 -24 5 -20 81 -162 116
-216 5 -8 17 -31 27 -50 10 -19 123 -192 251 -385 129 -192 270 -411 314 -485
44 -74 92 -155 107 -180 30 -51 126 -244 166 -335 129 -294 209 -575 246 -865
17 -130 11 -432 -11 -567 -44 -268 -59 -265 -126 22 -96 410 -144 559 -252
785 -49 103 -178 307 -188 298 -4 -5 33 -137 50 -178 34 -83 90 -283 103 -370
18 -113 12 -408 -11 -565 -33 -229 -119 -522 -204 -695 l-37 -75 -120 -61
c-301 -152 -437 -203 -560 -210 l-80 -5 63 33 c227 120 436 328 601 598 112
184 131 220 143 270 18 80 15 369 -6 520 -33 242 -95 561 -117 602 -5 10 -9
28 -9 40 -1 13 -6 36 -13 51 -10 23 -12 -19 -13 -230 -1 -196 -5 -282 -18
-358 -73 -421 -164 -653 -351 -895 -74 -97 -93 -118 -170 -195 -145 -145 -294
-236 -444 -272 -103 -25 -107 -14 -29 93 224 310 373 715 437 1189 59 436 52
847 -24 1410 -26 199 -86 475 -150 700 -48 170 -56 197 -64 213 -5 9 -17 40
-26 67 -21 61 -45 115 -120 280 -69 150 -210 376 -323 516 -66 82 -218 293
-225 312 -2 7 -7 9 -11 6 -4 -4 17 -44 45 -90 125 -202 193 -317 218 -368 14
-31 29 -57 34 -59 4 -2 7 -10 7 -18 0 -7 10 -30 21 -51 12 -21 27 -54 34 -73
7 -19 21 -55 32 -80 38 -85 75 -191 116 -327 27 -88 74 -298 118 -518 58 -293
64 -465 18 -465 -12 0 -56 71 -192 307 -120 208 -187 312 -304 468 -63 83
-224 271 -333 389 -177 191 -425 421 -442 410 -4 -3 -8 -2 -8 3 0 4 -12 22
-26 38 -76 88 -238 409 -259 515 -49 241 -73 324 -90 312 -16 -11 -62 -120
-91 -214 -83 -270 -138 -407 -194 -478 -10 -14 -40 -52 -66 -85 -110 -141
-256 -268 -499 -434 -273 -186 -345 -230 -333 -203 2 4 46 46 98 93 381 339
573 582 676 857 28 73 30 94 8 66 -15 -19 -16 -19 -9 1 9 28 19 145 12 145 -3
0 -72 -66 -154 -147 -81 -82 -159 -157 -173 -168 -151 -121 -193 -153 -240
-184 -30 -20 -57 -39 -60 -42 -11 -14 -230 -148 -310 -190 -47 -24 -87 -47
-90 -50 -6 -7 -181 -91 -325 -156 -574 -259 -848 -353 -1007 -345 l-57 3 142
73 c233 119 451 255 790 495 190 134 514 377 559 418 16 15 31 22 39 18 7 -5
10 -4 5 3 -3 6 27 38 70 73 72 60 107 105 102 130 -2 7 23 26 55 42 32 16 56
31 54 33 -13 13 -428 -108 -607 -176 -30 -12 -89 -34 -130 -49 -70 -27 -217
-92 -355 -157 -57 -27 -307 -187 -480 -309 -44 -31 -91 -63 -105 -73 -27 -18
-182 -134 -190 -142 -3 -3 -56 -47 -118 -98 -144 -118 -250 -217 -345 -320
-46 -50 -69 -62 -82 -42 -15 25 32 319 56 345 5 5 9 17 9 27 0 40 122 303 213
458 249 427 606 761 1044 975 357 175 467 232 470 242 4 10 -106 -11 -202 -40
-100 -30 -285 -112 -526 -232 -213 -106 -280 -143 -393 -217 -49 -32 -91 -58
-93 -58 -2 0 -9 -5 -16 -10 -7 -6 -61 -49 -122 -97 -247 -193 -446 -430 -630
-748 -88 -152 -271 -519 -333 -665 -8 -19 -30 -69 -49 -110 -19 -41 -52 -118
-73 -170 -21 -52 -51 -129 -68 -170 -58 -144 -168 -461 -195 -565 -3 -11 -17
-60 -32 -110 -145 -500 -173 -1140 -70 -1602 4 -19 1 -23 -17 -23 -14 0 -28 9
-34 23 -144 285 -170 355 -210 572 -15 81 -19 149 -19 355 0 316 4 344 110
790 l6 25 -15 -25 c-8 -14 -29 -59 -47 -100 -17 -41 -37 -88 -45 -105 -48
-108 -136 -419 -168 -595 -64 -357 -57 -750 19 -1060 53 -215 75 -278 161
-459 65 -138 141 -253 229 -346 98 -105 175 -200 175 -218 0 -32 -22 -27 -93
19 -211 139 -359 280 -505 483 -9 13 -22 28 -27 35 -35 40 -169 294 -203 386
-95 256 -134 477 -134 760 0 171 18 373 38 424 5 12 4 17 -3 13 -25 -16 -182
-348 -199 -422 -4 -16 -11 -35 -15 -41 -14 -17 -68 -250 -83 -358 -30 -208
-30 -342 -1 -611 4 -43 4 -46 -5 -20 -25 73 -60 218 -77 315 -26 158 -24 474
6 635 41 226 153 497 321 778 38 65 82 141 96 170 15 29 44 81 65 117 21 36
50 97 63 135 13 39 27 78 31 88 4 9 3 17 -2 17 -5 0 -24 -30 -42 -67 -40 -84
-179 -330 -202 -360 -38 -51 -182 -148 -201 -137 -6 4 -8 3 -5 -3 5 -8 -62
-37 -70 -30 -1 2 23 30 53 63 111 117 153 171 210 264 155 255 280 586 419
1112 261 980 495 1514 881 2003 423 538 991 913 1774 1172 314 104 712 179
955 181 53 0 56 -1 25 -8z m2235 -680 c3 -6 -1 -7 -9 -4 -18 7 -21 14 -7 14 6
0 13 -4 16 -10z m535 -556 c0 -8 -19 -13 -24 -6 -3 5 1 9 9 9 8 0 15 -2 15 -3z
m-2715 -710 c-31 -26 -173 -99 -180 -92 -2 2 42 31 98 65 103 62 136 73 82 27z
m1245 -97 c0 -23 137 -289 192 -372 99 -150 232 -318 448 -565 137 -157 138
-159 191 -317 28 -81 99 -317 159 -523 114 -396 246 -835 254 -849 15 -23 24
-276 15 -393 -13 -171 -43 -293 -113 -449 -14 -31 -22 -60 -18 -65 4 -4 1 -3
-7 1 -11 6 -13 4 -8 -9 5 -11 3 -15 -5 -10 -8 5 -9 2 -5 -10 4 -10 3 -15 -3
-11 -9 6 -14 -8 -11 -27 0 -5 -4 -8 -9 -8 -6 0 -10 -4 -10 -10 0 -5 -9 -19
-21 -31 -11 -11 -18 -27 -15 -34 3 -8 0 -17 -6 -21 -7 -5 -8 -2 -4 7 4 8 -1 3
-13 -11 -11 -14 -26 -36 -33 -50 -36 -72 -239 -284 -373 -390 -22 -17 -42 -35
-45 -38 -3 -4 -28 -25 -57 -46 -29 -22 -49 -44 -46 -49 4 -6 1 -7 -6 -3 -15
10 -53 -23 -44 -37 3 -6 1 -7 -6 -3 -14 9 -63 -28 -53 -39 4 -5 2 -6 -3 -2 -6
3 -30 -8 -54 -24 -24 -16 -48 -29 -53 -29 -5 0 -6 -5 -2 -12 4 -7 3 -8 -4 -4
-13 8 -64 -22 -57 -34 3 -4 -1 -7 -8 -6 -15 1 -247 -117 -242 -124 2 -3 -7 -6
-19 -6 -12 -1 -42 -11 -66 -22 -25 -11 -55 -23 -68 -27 -12 -3 -20 -10 -17
-15 3 -4 -5 -6 -17 -2 -16 4 -19 2 -13 -8 5 -8 4 -11 -2 -7 -5 3 -52 -7 -103
-23 -51 -17 -100 -30 -109 -30 -14 0 -14 -2 -1 -11 12 -9 12 -10 -3 -5 -11 3
-65 -5 -120 -18 -90 -21 -254 -52 -327 -62 -14 -1 -91 -8 -173 -15 -113 -10
-150 -10 -159 -1 -9 9 -7 12 8 12 37 0 121 48 175 100 30 28 47 48 39 44 -23
-12 -84 -54 -90 -62 -10 -13 -70 -43 -127 -63 -74 -26 -222 -36 -294 -20 -88
20 -200 68 -259 112 l-55 40 55 -51 c56 -52 117 -90 145 -90 8 0 15 -4 15 -10
0 -5 -3 -10 -7 -10 -36 1 -273 33 -361 50 -61 11 -121 19 -134 17 -13 -2 -16
-2 -8 1 22 7 -160 53 -184 47 -17 -5 -18 -4 -6 4 13 9 13 11 -2 11 -9 0 -76
20 -150 45 -73 25 -139 43 -146 40 -7 -3 -11 -1 -8 4 4 5 -29 23 -71 41 -43
18 -104 45 -137 62 -32 16 -65 27 -73 24 -8 -3 -11 -1 -8 4 3 5 -17 21 -45 35
-27 14 -50 23 -50 20 0 -3 -8 2 -17 11 -18 16 -47 36 -203 140 -295 197 -515
461 -630 754 -79 204 -109 360 -104 544 4 113 7 137 30 185 31 67 47 119 113
361 61 226 65 243 90 405 20 131 51 279 56 273 2 -2 14 -62 26 -133 31 -181
51 -203 62 -68 13 170 97 407 204 578 91 144 140 204 288 350 302 298 722 555
1435 880 129 58 248 113 264 121 48 23 39 11 -32 -43 -37 -29 -119 -91 -182
-140 -478 -366 -997 -698 -1264 -808 -118 -49 -156 -71 -156 -91 0 -32 389 -3
706 51 333 57 666 171 999 340 301 153 448 255 634 438 l104 102 -50 -76
c-123 -183 -251 -324 -498 -546 -88 -80 -160 -152 -160 -161 0 -9 13 -21 28
-26 80 -28 331 93 662 320 249 169 389 293 503 443 44 58 122 208 122 235 0 9
5 16 10 16 6 0 10 -6 10 -13z m-835 -337 c-3 -5 -12 -10 -18 -10 -7 0 -6 4 3
10 19 12 23 12 15 0z m555 -4 c-7 -7 -13 -7 -20 0 -6 6 -3 10 10 10 13 0 16
-4 10 -10z m-330 -270 c0 -2 -7 -7 -16 -10 -8 -3 -12 -2 -9 4 6 10 25 14 25 6z
m-2313 -482 c-3 -3 -12 -4 -19 -1 -8 3 -5 6 6 6 11 1 17 -2 13 -5z m3835 -172
c36 -48 110 -147 162 -220 l96 -132 0 -238 c0 -140 6 -286 15 -357 8 -65 13
-120 12 -122 -4 -3 -129 420 -176 597 -49 182 -113 380 -156 482 -18 43 -30
78 -27 77 4 0 37 -39 74 -87z m-4657 -61 c-3 -21 -2 -99 4 -172 10 -127 10
-140 -14 -249 -14 -63 -41 -203 -60 -310 -29 -161 -132 -589 -134 -555 0 6 6
66 14 135 20 166 21 633 1 708 -12 47 -11 56 5 90 18 37 111 241 155 340 13
28 26 52 30 52 3 0 3 -17 -1 -39z m5035 -505 l72 -139 -25 -66 c-14 -36 -30
-93 -36 -126 -16 -86 -33 -314 -25 -327 4 -6 3 -8 -3 -5 -24 15 -63 420 -63
651 0 88 2 157 4 155 2 -2 36 -67 76 -143z m-5242 -161 c0 -109 -3 -170 -8
-155 -5 14 -16 52 -26 85 -9 33 -25 74 -36 91 -20 35 -20 38 30 148 24 54 27
57 33 35 4 -13 7 -105 7 -204z m-66 -9 c6 4 8 3 5 -3 -3 -5 6 -45 21 -89 24
-72 26 -93 27 -241 0 -89 -3 -164 -6 -167 -11 -11 -229 125 -229 144 0 11 85
239 120 325 32 75 34 78 43 52 5 -15 13 -24 19 -21z m5428 -96 c18 -47 44
-133 60 -193 l28 -107 -41 -28 c-45 -31 -153 -92 -162 -92 -11 0 -4 201 10
290 18 107 55 234 66 223 4 -5 22 -46 39 -93z m91 -67 c13 -16 12 -17 -3 -4
-17 13 -22 21 -14 21 2 0 10 -8 17 -17z m-5657 -246 c54 -43 114 -83 149 -98
35 -16 35 -42 3 -192 -14 -61 -25 -141 -25 -177 0 -36 -3 -94 -7 -129 -5 -46
-4 -62 5 -57 7 5 9 1 5 -8 -9 -22 -19 -20 -69 14 -84 57 -225 221 -225 260 0
42 106 420 118 420 3 0 23 -15 46 -33z m5660 -15 c8 -13 46 -282 55 -396 11
-127 12 -126 -77 -199 -60 -50 -117 -81 -168 -92 l-31 -6 5 163 c3 90 8 165
12 168 3 3 3 39 -1 80 -4 41 -8 98 -8 125 l0 50 57 28 c83 40 108 55 122 72
14 17 26 19 34 7z m-5517 -534 c-3 -7 -5 -2 -5 12 0 14 2 19 5 13 2 -7 2 -19
0 -25z m7154 -1425 c-12 -20 -14 -14 -5 12 4 9 9 14 11 11 3 -2 0 -13 -6 -23z
m-890 -76 c-10 -9 -11 -8 -5 6 3 10 9 15 12 12 3 -3 0 -11 -7 -18z m-5156 -65
c-3 -3 -11 0 -18 7 -9 10 -8 11 6 5 10 -3 15 -9 12 -12z m920 -300 c-3 -3 -11
0 -18 7 -9 10 -8 11 6 5 10 -3 15 -9 12 -12z m396 -53 c97 -6 214 -9 260 -6
46 3 145 8 220 11 l136 5 -4 -47 c-2 -26 0 -91 5 -145 8 -81 13 -103 31 -120
18 -18 21 -18 15 -4 -3 9 -10 17 -15 17 -4 0 -6 6 -3 14 3 8 16 13 29 12 13 0
21 -4 19 -8 -7 -10 67 -40 83 -33 8 2 11 0 8 -5 -3 -6 2 -10 12 -10 10 0 45
-12 78 -26 33 -14 65 -26 71 -27 8 0 7 -18 -3 -61 -28 -124 -45 -173 -95 -276
-118 -239 -323 -365 -655 -401 -178 -19 -335 5 -466 72 -232 118 -386 362
-391 621 l-1 71 65 17 c75 19 117 39 144 69 26 29 34 26 40 -11 2 -18 2 32 0
112 -3 79 -8 149 -12 155 -6 9 -7 25 -3 46 0 3 58 -3 128 -12 69 -10 206 -23
304 -30z m674 -249 c3 -6 -1 -7 -9 -4 -18 7 -21 14 -7 14 6 0 13 -4 16 -10z
m-2955 -504 c0 -2 -7 -7 -16 -10 -8 -3 -12 -2 -9 4 6 10 25 14 25 6z m-382
-441 c-6 -14 -13 -23 -15 -21 -5 5 15 46 22 46 3 0 -1 -11 -7 -25z m-117 -212
c-12 -20 -14 -14 -5 12 4 9 9 14 11 11 3 -2 0 -13 -6 -23z m-54 -118 c-15 -16
-19 -13 -11 9 3 9 10 13 15 10 5 -3 3 -11 -4 -19z m-46 -78 c-10 -9 -11 -8 -5
6 3 10 9 15 12 12 3 -3 0 -11 -7 -18z m-521 -1051 c0 -3 -4 -8 -10 -11 -5 -3
-10 -1 -10 4 0 6 5 11 10 11 6 0 10 -2 10 -4z m-324 -614 c-17 -16 -18 -16 -5
5 7 12 15 20 18 17 3 -2 -3 -12 -13 -22z m7997 -732 c14 -41 46 -129 71 -195
25 -66 65 -172 89 -236 l44 -116 -131 -6 c-72 -4 -388 -7 -702 -7 l-571 0 -27
74 c-14 41 -26 78 -26 84 0 5 22 12 50 16 78 10 415 102 515 139 121 46 361
150 443 191 37 19 101 57 141 85 41 28 76 49 77 48 1 -1 13 -36 27 -77z
m-1283 -404 c0 -1 11 -34 25 -72 14 -38 25 -72 25 -76 0 -11 -297 -10 -304 0
-3 5 -8 31 -12 59 l-6 52 33 5 c19 2 70 11 114 19 83 15 125 20 125 13z
m-5337 -116 c30 0 37 -4 37 -20 0 -19 -7 -20 -110 -20 -109 0 -116 2 -103 35
5 15 16 17 72 11 36 -3 83 -6 104 -6z m7012 -203 c130 -7 215 -64 248 -166 21
-65 21 -74 2 -170 -8 -42 -39 -215 -70 -386 -30 -170 -62 -341 -71 -380 -19
-83 -18 -79 -44 -225 -11 -63 -25 -140 -31 -170 -5 -30 -16 -91 -24 -135 -7
-44 -25 -141 -39 -215 -13 -74 -48 -263 -75 -420 -56 -312 -86 -478 -101 -555
-6 -27 -32 -176 -60 -330 -27 -154 -57 -320 -66 -370 -9 -49 -22 -121 -29
-160 -8 -38 -30 -162 -50 -275 -59 -335 -75 -411 -90 -444 -23 -47 -84 -106
-135 -130 l-45 -21 -3755 0 -3755 0 -58 29 c-64 31 -117 92 -136 156 -11 37
-65 322 -120 635 -16 94 -45 256 -65 360 -19 105 -39 217 -45 250 -5 33 -30
173 -55 310 -25 138 -59 324 -76 415 -45 255 -129 717 -145 800 -7 41 -30 167
-50 280 -20 113 -43 230 -50 260 -8 30 -25 120 -39 200 -14 80 -39 217 -55
305 -55 297 -56 308 -42 368 15 67 63 126 129 159 l47 23 3530 5 c3624 5 5279
4 5420 -3z m345 -2031 c0 -2 -7 -7 -16 -10 -8 -3 -12 -2 -9 4 6 10 25 14 25 6z
m-43 -22 c-3 -3 -12 -4 -19 -1 -8 3 -5 6 6 6 11 1 17 -2 13 -5z m-112 -34 c-3
-5 -12 -10 -18 -10 -7 0 -6 4 3 10 19 12 23 12 15 0z m-10978 -96 c-74 -176
-117 -374 -124 -571 -12 -330 54 -596 222 -888 182 -318 507 -600 1105 -960
102 -61 203 -119 225 -129 22 -11 51 -26 65 -36 14 -9 52 -32 85 -50 197 -107
255 -141 395 -227 85 -52 144 -91 130 -88 -14 4 -29 11 -35 15 -5 4 -89 47
-185 95 -150 76 -267 139 -490 263 -25 14 -106 61 -180 106 -74 44 -198 115
-275 159 -121 69 -288 176 -390 250 -29 21 -230 172 -283 212 l-27 20 29 -38
c16 -21 38 -45 50 -52 11 -8 18 -17 15 -19 -8 -8 -124 84 -121 95 1 6 -2 8 -7
5 -14 -9 -143 129 -206 219 -164 235 -252 515 -262 830 -10 330 62 555 272
841 19 26 16 5 -8 -52z m10808 36 c-3 -5 -14 -10 -23 -10 -15 0 -15 2 -2 10
20 13 33 13 25 0z m82 -1036 c-3 -3 -12 -4 -19 -1 -8 3 -5 6 6 6 11 1 17 -2
13 -5z m-57 -58 c0 -2 -9 -6 -20 -9 -11 -3 -18 -1 -14 4 5 9 34 13 34 5z
m-260 -116 c0 -5 -5 -10 -11 -10 -5 0 -7 5 -4 10 3 6 8 10 11 10 2 0 4 -4 4
-10z m-8405 -210 c3 -6 -1 -7 -9 -4 -18 7 -21 14 -7 14 6 0 13 -4 16 -10z
m1773 -1057 c-26 -2 -71 -2 -100 0 -29 2 -8 3 47 3 55 0 79 -1 53 -3z m4585 0
c-18 -2 -48 -2 -65 0 -18 2 -4 4 32 4 36 0 50 -2 33 -4z m-73 -37 c0 -3 -4 -8
-10 -11 -5 -3 -10 -1 -10 4 0 6 5 11 10 11 6 0 10 -2 10 -4z m-4225 -196 c3
-5 1 -10 -4 -10 -6 0 -11 5 -11 10 0 6 2 10 4 10 3 0 8 -4 11 -10z m135 -150
c0 -5 -5 -10 -11 -10 -5 0 -7 5 -4 10 3 6 8 10 11 10 2 0 4 -4 4 -10z m5257
-550 c261 -144 414 -318 494 -565 55 -168 86 -551 60 -736 -36 -251 -147 -485
-267 -558 -24 -14 -44 -30 -44 -36 0 -12 -106 -83 -176 -118 -115 -58 -344
-96 -573 -97 -79 0 -142 2 -140 5 3 2 59 12 125 20 194 25 308 67 429 158 139
105 240 278 314 537 115 406 98 778 -50 1073 -71 139 -188 280 -301 359 -32
23 -58 42 -58 44 0 6 113 -46 187 -86z m-6592 -41 c82 -31 80 -26 51 -115 -52
-157 -61 -224 -60 -434 0 -172 3 -210 27 -322 113 -533 317 -787 687 -852 47
-8 116 -18 153 -22 37 -3 66 -8 65 -10 -12 -11 -163 -13 -273 -4 -293 25 -460
80 -590 195 -22 19 -60 50 -85 68 -25 18 -66 64 -91 102 -120 182 -179 438
-164 715 15 305 62 499 161 668 28 47 23 47 119 11z"/>
<path d="M7742 16450 c-130 -47 -257 -174 -368 -365 l-29 -50 81 80 c171 169
325 237 489 214 121 -17 270 -117 371 -249 21 -27 40 -48 42 -46 9 9 -70 172
-112 231 -59 81 -115 130 -196 169 -84 40 -195 46 -278 16z"/>
<path d="M5453 16300 c-51 -29 -99 -80 -145 -155 -25 -40 -88 -189 -88 -207 0
-6 19 18 41 52 46 67 120 132 187 162 126 56 271 22 428 -103 41 -33 74 -56
74 -53 0 24 -83 155 -131 208 -80 87 -157 126 -248 126 -55 0 -75 -5 -118 -30z"/>
<path d="M7735 15897 c-22 -8 -60 -24 -85 -37 -46 -23 -154 -120 -172 -154 -6
-11 17 10 50 46 177 188 411 188 600 -1 149 -148 220 -337 229 -607 7 -180 -7
-259 -66 -380 -106 -219 -299 -322 -506 -269 -149 38 -259 122 -333 255 -23
41 -42 71 -42 66 0 -19 74 -143 115 -191 51 -60 145 -118 239 -147 70 -21 179
-28 229 -15 15 4 27 3 27 -1 0 -5 -30 -39 -67 -75 -37 -37 -62 -67 -57 -67 6
0 21 12 35 26 13 14 45 42 71 62 35 26 44 38 35 45 -8 6 -7 7 5 3 15 -4 124
60 176 104 6 6 12 8 12 5 0 -3 26 8 58 24 31 16 80 37 107 47 28 9 61 27 74
38 13 12 21 15 16 7 -6 -11 -4 -13 11 -7 18 7 53 15 154 35 l45 9 -45 1 c-66
1 -164 -16 -255 -45 -94 -31 -129 -50 -118 -67 4 -8 1 -7 -10 2 -15 12 -15 15
7 45 114 156 157 363 122 594 l-12 82 49 41 c53 46 92 99 103 143 6 27 4 26
-37 -18 -42 -46 -71 -66 -116 -80 -18 -6 -22 -2 -28 25 -6 28 -3 35 24 56 39
31 77 95 90 153 7 35 7 41 -2 26 -23 -38 -79 -95 -112 -115 l-34 -20 -48 81
c-62 104 -157 194 -256 243 -64 32 -87 38 -159 41 -53 3 -98 -1 -123 -9z"/>
<path d="M5520 15815 c-132 -37 -267 -169 -332 -324 -13 -32 -27 -51 -37 -51
-27 0 -77 36 -107 77 -43 58 -46 61 -38 28 12 -51 34 -88 86 -141 42 -43 48
-55 43 -77 -4 -15 -12 -27 -19 -27 -21 0 -114 59 -134 85 -26 33 -34 32 -20
-2 20 -47 58 -93 104 -126 l45 -33 3 -164 c3 -182 14 -238 70 -355 18 -38 48
-90 67 -115 53 -68 56 -74 29 -60 -48 26 -167 51 -259 55 -53 2 -80 1 -61 -1
88 -11 258 -56 301 -79 14 -8 29 -12 33 -8 3 3 6 1 6 -7 0 -10 4 -10 17 1 10
9 14 9 10 2 -5 -7 1 -16 13 -23 11 -6 20 -7 20 -3 0 4 4 3 8 -3 4 -5 44 -32
89 -58 44 -26 89 -55 100 -64 10 -10 36 -30 58 -45 28 -20 20 -10 -27 36 l-68
65 93 4 c206 10 356 124 437 332 17 43 29 80 27 83 -3 2 -11 -13 -17 -34 -24
-73 -85 -177 -132 -224 -60 -60 -170 -114 -263 -130 -60 -9 -81 -9 -134 5
-160 41 -299 200 -352 403 -26 102 -36 293 -20 404 15 105 61 244 108 328 48
85 135 171 215 210 121 60 255 41 373 -51 51 -40 68 -50 35 -20 -113 103 -246
141 -370 107z"/>
<path d="M7760 15686 c-76 -27 -100 -41 -95 -54 3 -7 0 -10 -6 -7 -5 4 -26 -8
-45 -27 -36 -35 -99 -136 -90 -145 3 -3 -2 -12 -10 -21 -10 -9 -13 -24 -9 -41
4 -21 3 -23 -5 -11 -9 11 -10 6 -5 -25 4 -27 3 -35 -4 -26 -29 44 -35 -259 -7
-374 39 -160 142 -307 253 -361 148 -73 309 -3 401 173 62 120 76 185 76 348
-1 130 -3 146 -33 234 -70 208 -192 332 -337 345 -27 3 -65 -1 -84 -8z m131
-11 c19 -4 44 -15 57 -23 23 -15 23 -16 6 -29 -10 -7 -27 -13 -38 -13 -17 1
-15 4 9 15 29 13 28 13 -27 9 -37 -3 -58 -1 -58 6 0 13 -66 13 -92 -1 -14 -7
-23 -8 -31 0 -7 7 -2 12 16 17 15 3 25 10 22 14 -10 16 73 19 136 5z m-179
-62 c-6 -3 -10 -9 -7 -14 4 -5 -1 -6 -10 -3 -9 4 -15 3 -14 -2 3 -20 -2 -28
-10 -15 -7 11 -13 10 -35 -5 -34 -25 -33 -39 1 -17 25 16 24 13 -11 -29 -33
-41 -56 -59 -56 -44 0 2 -3 13 -6 23 -5 16 -4 16 10 -1 18 -23 21 -14 5 16 -9
16 -8 19 3 15 7 -2 12 -10 11 -16 -2 -6 2 -11 7 -11 13 0 13 23 -1 37 -8 8 -4
16 15 28 14 10 26 22 26 29 0 6 18 12 43 12 23 1 36 0 29 -3z m295 -15 c1 -10
-4 -18 -10 -18 -7 -1 1 -8 16 -16 16 -9 27 -18 24 -21 -3 -2 -17 3 -31 13 -19
12 -25 22 -20 36 5 17 3 19 -18 13 -17 -5 -19 -4 -9 4 22 15 47 9 48 -11z m41
-27 c3 -8 -1 -12 -9 -9 -7 2 -15 10 -17 17 -3 8 1 12 9 9 7 -2 15 -10 17 -17z
m-366 -88 c-95 -162 -122 -366 -69 -520 20 -58 80 -161 121 -208 20 -23 31
-44 26 -49 -12 -12 -52 0 -79 23 -12 11 -32 26 -44 34 -12 8 -18 19 -14 23 4
5 13 2 18 -6 9 -13 10 -13 6 0 -2 8 -12 14 -21 14 -24 -3 -96 99 -116 163 -9
29 -19 51 -22 47 -3 -3 -6 12 -6 33 0 21 0 65 0 98 0 98 2 120 13 128 6 6 5
10 -3 14 -10 4 -10 8 2 17 9 6 17 22 18 36 2 14 6 30 10 35 79 108 110 145
148 173 24 19 46 29 48 23 2 -5 -15 -41 -36 -78z m311 52 c107 -51 131 -253
42 -342 -48 -48 -94 -46 -145 5 -66 66 -80 179 -32 273 25 49 52 71 100 78 2
1 18 -6 35 -14z m77 5 c0 -5 -2 -10 -4 -10 -3 0 -8 5 -11 10 -3 6 -1 10 4 10
6 0 11 -4 11 -10z m-10 -31 c0 -6 -4 -7 -10 -4 -5 3 -10 11 -10 16 0 6 5 7 10
4 6 -3 10 -11 10 -16z m36 9 c4 -7 3 -8 -4 -4 -7 4 -12 0 -12 -10 0 -10 -3
-15 -6 -11 -7 6 2 37 10 37 3 0 8 -5 12 -12z m2 -38 c-7 -10 -14 -18 -15 -16
-6 6 9 36 18 36 5 0 4 -9 -3 -20z m-554 -12 c-6 -20 -5 -21 10 -9 22 18 20 5
-3 -25 l-19 -24 3 33 c4 45 4 47 11 47 3 0 2 -10 -2 -22z m569 -5 c-4 -11 -3
-14 5 -9 7 4 15 0 19 -9 9 -24 -18 -38 -33 -17 -8 11 -9 23 -3 34 12 23 20 23
12 1z m47 -74 c0 -6 -4 -7 -10 -4 -5 3 -10 11 -10 16 0 6 5 7 10 4 6 -3 10
-11 10 -16z m19 -64 c0 -5 -4 -3 -9 5 -8 13 -10 12 -10 -4 0 -11 -2 -17 -5
-14 -4 3 -3 18 1 34 6 25 8 26 15 9 4 -11 8 -24 8 -30z m3 -72 c-3 -16 -7 -22
-10 -15 -4 13 4 42 11 42 2 0 2 -12 -1 -27z m-61 -219 c-21 -37 -22 -37 -16
-9 3 17 8 57 12 90 l7 60 9 -51 c8 -44 6 -56 -12 -90z"/>
<path d="M7849 15663 c27 -4 31 -7 20 -15 -11 -8 -10 -9 4 -4 10 3 28 6 40 7
20 1 20 2 -3 9 -14 4 -41 8 -60 7 l-35 0 34 -4z"/>
<path d="M7640 14820 c0 -5 5 -10 11 -10 5 0 7 5 4 10 -3 6 -8 10 -11 10 -2 0
-4 -4 -4 -10z"/>
<path d="M7720 14720 c8 -5 20 -10 25 -10 6 0 3 5 -5 10 -8 5 -19 10 -25 10
-5 0 -3 -5 5 -10z"/>
<path d="M8106 15438 c3 -5 10 -6 15 -3 13 9 11 12 -6 12 -8 0 -12 -4 -9 -9z"/>
<path d="M5548 15596 c-16 -8 -28 -13 -28 -10 0 3 -14 -4 -30 -16 -17 -12 -28
-26 -25 -31 4 -5 0 -9 -7 -9 -8 0 -6 -5 5 -11 17 -10 17 -13 3 -27 -8 -10 -14
-19 -13 -22 3 -11 -37 -49 -45 -43 -5 3 -9 -1 -7 -8 3 -27 -1 -40 -11 -34 -6
3 -7 17 -4 31 4 14 2 24 -5 24 -11 0 -15 -13 -11 -40 1 -8 -1 -12 -6 -8 -14
15 -62 -116 -64 -177 0 -11 -3 -56 -6 -100 -5 -78 10 -214 24 -225 4 -3 8 -20
9 -39 2 -50 67 -172 122 -233 30 -32 73 -65 107 -82 50 -25 66 -28 120 -23 76
6 136 37 189 99 43 51 97 161 116 238 28 112 12 410 -22 410 -5 0 -9 13 -9 30
0 37 -19 80 -37 80 -7 0 -13 -6 -13 -12 0 -7 -10 3 -22 22 -13 19 -30 43 -40
54 -9 10 -14 24 -11 32 5 14 -12 20 -20 7 -2 -5 -2 -2 0 6 2 8 -2 11 -12 7 -9
-3 -13 -2 -10 4 3 6 -2 10 -12 10 -22 1 -64 30 -42 30 8 0 2 6 -12 14 -15 7
-39 11 -53 9 -18 -4 -26 -1 -26 9 0 8 -17 20 -37 26 -37 11 -36 11 17 6 30 -3
63 -5 72 -5 10 0 15 -6 11 -15 -6 -16 5 -18 27 -4 16 10 15 11 -23 28 -38 16
-126 15 -159 -2z m20 -30 c-10 -7 -18 -21 -18 -30 0 -21 -18 -20 -44 2 -20 16
-20 16 -7 -1 8 -9 11 -20 8 -23 -6 -7 -38 9 -40 20 -2 8 31 29 51 32 8 2 16 5
20 8 3 3 15 6 26 6 20 -1 20 -2 4 -14z m53 -14 c-7 -2 -18 1 -23 6 -8 8 -4 9
13 5 13 -4 18 -8 10 -11z m-34 -8 c-3 -3 -12 -4 -19 -1 -8 3 -5 6 6 6 11 1 17
-2 13 -5z m-101 -156 c-56 -114 -76 -195 -76 -313 0 -111 19 -189 68 -275 20
-36 35 -71 34 -79 -2 -7 1 -10 6 -7 5 3 22 -8 37 -24 23 -24 26 -33 17 -42
-10 -10 -19 -8 -45 7 -96 55 -176 166 -202 278 -19 80 -20 254 -2 268 4 3 9
39 12 79 4 59 10 79 26 95 l22 20 -6 -22 c-8 -35 7 -28 44 20 31 41 100 99
108 92 2 -2 -17 -46 -43 -97z m363 -2 c31 -61 35 -171 8 -223 -44 -83 -122
-96 -179 -29 -29 34 -51 123 -45 177 6 49 38 122 58 135 59 36 121 13 158 -60z
m88 -94 c1 -23 -1 -32 -6 -23 -5 7 -6 23 -4 35 4 17 3 18 -6 6 -9 -13 -11 -13
-11 1 0 18 11 32 19 24 2 -3 6 -22 8 -43z m30 -84 c-3 -8 -6 -5 -6 6 -1 11 2
17 5 13 3 -3 4 -12 1 -19z m-62 -245 c-16 -28 -16 -28 -11 -3 3 14 9 53 13 85
l8 60 3 -57 c2 -39 -2 -66 -13 -85z"/>
<path d="M5355 15358 c-2 -7 -6 -31 -9 -53 l-6 -40 14 32 c8 18 14 42 13 53
-1 23 -6 26 -12 8z"/>
<path d="M5542 14666 c7 -8 15 -12 17 -11 5 6 -10 25 -20 25 -5 0 -4 -6 3 -14z"/>
<path d="M5730 15560 c-13 -9 -13 -10 0 -11 8 -1 20 -3 25 -4 6 -2 17 -3 25
-4 13 -1 13 -3 1 -10 -12 -8 -8 -13 18 -28 46 -25 79 -52 64 -53 -7 0 -13 5
-13 11 0 5 -5 7 -10 4 -6 -4 -4 -12 6 -22 13 -14 17 -14 26 -2 7 10 8 7 4 -12
-3 -15 0 -34 9 -45 9 -12 14 -14 15 -6 0 7 5 10 10 7 15 -9 -10 44 -38 82 -13
18 -28 30 -33 27 -5 -3 -9 1 -9 9 0 17 -44 59 -53 50 -4 -3 -7 -1 -7 5 0 14
-19 15 -40 2z m85 -40 c3 -5 -1 -10 -9 -10 -9 0 -16 5 -16 10 0 6 4 10 9 10 6
0 13 -4 16 -10z"/>
<path d="M5436 15503 c2 -7 -3 -10 -10 -7 -7 3 -21 -8 -31 -23 -14 -22 -15
-25 -3 -15 11 9 18 10 23 2 3 -5 1 -10 -5 -10 -6 0 -9 -4 -5 -10 3 -5 13 -2
24 8 10 9 16 19 15 21 -2 2 1 13 7 24 7 12 7 17 1 13 -6 -3 -12 -3 -15 1 -2 5
-2 3 -1 -4z"/>
<path d="M6101 14944 c0 -11 3 -14 6 -6 3 7 2 16 -1 19 -3 4 -6 -2 -5 -13z"/>
<path d="M6091 14884 c0 -11 3 -14 6 -6 3 7 2 16 -1 19 -3 4 -6 -2 -5 -13z"/>
<path d="M7390 14865 c0 -5 5 -17 10 -25 5 -8 10 -10 10 -5 0 6 -5 17 -10 25
-5 8 -10 11 -10 5z"/>
<path d="M6081 14844 c0 -11 3 -14 6 -6 3 7 2 16 -1 19 -3 4 -6 -2 -5 -13z"/>
<path d="M6622 14638 c-1 -26 -7 -59 -13 -75 -6 -15 -9 -28 -7 -29 7 -1 -69
-62 -102 -81 -19 -11 -62 -28 -95 -37 -105 -29 -125 -49 -125 -125 0 -118 169
-297 308 -327 15 -3 3 6 -27 20 -96 47 -241 221 -241 290 0 10 -5 27 -11 39
-7 12 -8 19 -4 15 5 -5 14 1 21 11 8 10 44 28 81 40 77 23 137 57 128 71 -3 5
0 7 8 5 16 -7 38 17 67 72 16 32 20 54 17 100 -3 54 -3 55 -5 11z"/>
<path d="M7494 13836 c-9 -23 -61 -44 -184 -71 -197 -45 -379 -59 -1150 -91
-85 -3 -157 -7 -160 -9 -4 -2 -23 0 -43 5 -29 6 -37 5 -37 -6 0 -14 9 -17 65
-18 28 -1 31 -6 51 -66 35 -108 86 -203 201 -370 32 -47 86 -99 97 -93 6 3 8
2 3 -2 -10 -11 43 -66 56 -58 6 3 7 1 4 -4 -4 -6 11 -22 33 -37 22 -14 40 -23
40 -19 0 5 4 3 8 -3 4 -6 33 -23 66 -39 50 -25 74 -29 165 -33 124 -5 209 12
301 58 70 35 214 166 206 187 -3 8 -2 12 3 9 18 -12 77 85 65 106 -4 6 -3 8 4
4 9 -5 38 47 82 149 31 73 61 189 56 217 -4 23 -3 27 2 13 7 -16 10 -12 15 20
15 89 27 115 52 115 31 0 41 18 22 38 -15 14 -17 14 -23 -2z m-177 -113 c-97
-165 -332 -242 -733 -243 -186 0 -285 19 -365 71 -40 25 -89 81 -89 101 0 5
124 13 365 23 405 17 628 37 770 69 33 7 63 14 67 15 4 0 -3 -16 -15 -36z
m-213 -578 l69 -18 -50 -48 c-62 -59 -187 -124 -269 -138 -63 -12 -214 -11
-214 1 0 3 -15 9 -32 13 -40 9 -94 32 -129 56 -14 10 -28 16 -31 14 -2 -2 -9
5 -16 16 -12 19 -7 22 65 56 121 56 221 73 393 69 97 -2 168 -9 214 -21z"/>
<path d="M6690 6225 c-115 -26 -224 -86 -304 -168 -76 -78 -106 -128 -131
-222 -20 -78 -19 -126 4 -213 22 -86 57 -147 119 -210 321 -324 947 -208 1066
197 20 70 20 182 0 251 -45 151 -188 287 -367 348 -92 31 -287 40 -387 17z
m322 -54 c143 -41 255 -128 310 -239 31 -62 33 -74 33 -167 0 -89 -3 -106 -28
-157 -17 -35 -52 -79 -91 -115 -103 -97 -226 -143 -383 -143 -101 0 -182 18
-264 59 -122 61 -194 142 -229 260 -67 219 79 435 342 505 79 22 229 20 310
-3z"/>
</g>
</svg>
