<svg xmlns="http://www.w3.org/2000/svg" xmlns:xlink="http://www.w3.org/1999/xlink" width="500" zoomAndPan="magnify" viewBox="0 0 375 374.999991" height="500" preserveAspectRatio="xMidYMid meet" version="1.0"><defs><g/><clipPath id="f9a33fb975"><path d="M 0 111.5 L 2 111.5 L 2 141 L 0 141 Z M 0 111.5 " clip-rule="nonzero"/></clipPath></defs><g fill="#000000" fill-opacity="1"><g transform="translate(12.820771, 263.789251)"><g><path d="M 0 -140.484375 L 0 -141.90625 L 46.546875 -141.90625 L 46.546875 -140.484375 C 41.535156 -140.484375 37.726562 -139.820312 35.125 -138.5 C 32.519531 -137.175781 30.835938 -135.332031 30.078125 -132.96875 C 29.328125 -130.601562 29.234375 -127.859375 29.796875 -124.734375 C 30.367188 -121.609375 31.316406 -118.25 32.640625 -114.65625 L 70.953125 -13.625 C 74.640625 -24.03125 78.445312 -34.457031 82.375 -44.90625 C 86.300781 -55.363281 90.15625 -65.84375 93.9375 -76.34375 L 78.46875 -117.078125 C 75.351562 -124.921875 72.421875 -130.78125 69.671875 -134.65625 C 66.929688 -138.539062 63.382812 -140.484375 59.03125 -140.484375 L 59.03125 -141.90625 L 131.125 -141.90625 L 131.125 -140.484375 C 126.769531 -140.484375 123.195312 -138.539062 120.40625 -134.65625 C 117.613281 -130.78125 114.707031 -124.921875 111.6875 -117.078125 L 101.171875 -89.40625 L 129.984375 -13.625 C 135.847656 -30.363281 141.945312 -47.101562 148.28125 -63.84375 C 154.625 -80.59375 160.539062 -97.390625 166.03125 -114.234375 C 166.976562 -117.066406 167.59375 -120.019531 167.875 -123.09375 C 168.15625 -126.175781 167.820312 -129.015625 166.875 -131.609375 C 165.9375 -134.210938 164.140625 -136.34375 161.484375 -138 C 158.835938 -139.65625 155.007812 -140.484375 150 -140.484375 L 150 -141.90625 L 190.15625 -141.90625 L 190.15625 -140.484375 C 185.800781 -140.484375 182.226562 -138.539062 179.4375 -134.65625 C 176.644531 -130.78125 173.738281 -124.921875 170.71875 -117.078125 L 125.296875 2.84375 L 123.890625 2.84375 L 95.078125 -73.21875 L 66.265625 2.84375 L 64.84375 2.84375 L 19.4375 -117.078125 C 16.320312 -124.921875 13.390625 -130.78125 10.640625 -134.65625 C 7.898438 -138.539062 4.351562 -140.484375 0 -140.484375 Z M 97.921875 -140.34375 C 94.515625 -140.34375 92.03125 -139.582031 90.46875 -138.0625 C 88.90625 -136.550781 88.050781 -134.539062 87.90625 -132.03125 C 87.769531 -129.53125 88.078125 -126.765625 88.828125 -123.734375 C 89.585938 -120.710938 90.535156 -117.6875 91.671875 -114.65625 L 99.90625 -93.09375 C 101.132812 -96.59375 102.316406 -100.113281 103.453125 -103.65625 C 104.585938 -107.207031 105.769531 -110.734375 107 -114.234375 C 107.851562 -116.691406 108.609375 -119.410156 109.265625 -122.390625 C 109.929688 -125.367188 110.144531 -128.226562 109.90625 -130.96875 C 109.664062 -133.71875 108.644531 -135.96875 106.84375 -137.71875 C 105.050781 -139.46875 102.078125 -140.34375 97.921875 -140.34375 Z M 97.921875 -140.34375 "/></g></g></g><g fill="#000000" fill-opacity="1"><g transform="translate(162.806372, 263.460437)"><g><path d="M 8.515625 -107.875 C 8.515625 -114.5 10.476562 -120.601562 14.40625 -126.1875 C 18.332031 -131.769531 24.078125 -136.265625 31.640625 -139.671875 C 39.210938 -143.078125 48.441406 -144.78125 59.328125 -144.78125 C 68.035156 -144.78125 75.582031 -144.160156 81.96875 -142.921875 C 88.351562 -141.691406 94.289062 -140.132812 99.78125 -138.25 L 99.78125 -119.234375 L 98.359375 -119.234375 C 98.359375 -119.234375 97.976562 -120.035156 97.21875 -121.640625 C 96.46875 -123.242188 95.191406 -125.226562 93.390625 -127.59375 C 91.597656 -129.96875 89.207031 -132.335938 86.21875 -134.703125 C 83.238281 -137.066406 79.523438 -139.050781 75.078125 -140.65625 C 70.628906 -142.269531 65.378906 -143.078125 59.328125 -143.078125 C 50.523438 -143.078125 43.070312 -141.515625 36.96875 -138.390625 C 30.863281 -135.265625 26.25 -131.289062 23.125 -126.46875 C 20.007812 -121.644531 18.453125 -116.582031 18.453125 -111.28125 C 18.453125 -106.457031 19.703125 -102.34375 22.203125 -98.9375 C 24.710938 -95.53125 28.117188 -92.59375 32.421875 -90.125 C 36.734375 -87.664062 41.535156 -85.488281 46.828125 -83.59375 C 52.128906 -81.707031 57.617188 -79.816406 63.296875 -77.921875 C 68.984375 -76.023438 74.472656 -73.960938 79.765625 -71.734375 C 85.066406 -69.515625 89.867188 -66.84375 94.171875 -63.71875 C 98.484375 -60.601562 101.890625 -56.84375 104.390625 -52.4375 C 106.898438 -48.039062 108.15625 -42.722656 108.15625 -36.484375 C 108.15625 -31.554688 106.925781 -26.75 104.46875 -22.0625 C 102.007812 -17.382812 98.457031 -13.175781 93.8125 -9.4375 C 89.175781 -5.695312 83.59375 -2.710938 77.0625 -0.484375 C 70.539062 1.734375 63.164062 2.84375 54.9375 2.84375 C 48.6875 2.84375 42.722656 1.941406 37.046875 0.140625 C 31.367188 -1.660156 26.160156 -3.90625 21.421875 -6.59375 C 16.691406 -9.289062 12.578125 -11.921875 9.078125 -14.484375 L 9.078125 -33.5 L 10.5 -33.5 C 10.5 -33.5 11.234375 -32.363281 12.703125 -30.09375 C 14.171875 -27.820312 16.347656 -25.003906 19.234375 -21.640625 C 22.117188 -18.285156 25.664062 -14.925781 29.875 -11.5625 C 34.082031 -8.207031 38.953125 -5.394531 44.484375 -3.125 C 50.023438 -0.851562 56.15625 0.28125 62.875 0.28125 C 68.082031 0.28125 72.929688 -0.566406 77.421875 -2.265625 C 81.921875 -3.972656 85.847656 -6.289062 89.203125 -9.21875 C 92.566406 -12.15625 95.191406 -15.46875 97.078125 -19.15625 C 98.972656 -22.851562 99.921875 -26.6875 99.921875 -30.65625 C 99.921875 -35.957031 98.644531 -40.523438 96.09375 -44.359375 C 93.539062 -48.191406 90.085938 -51.476562 85.734375 -54.21875 C 81.378906 -56.96875 76.476562 -59.425781 71.03125 -61.59375 C 65.59375 -63.769531 59.988281 -65.851562 54.21875 -67.84375 C 48.445312 -69.832031 42.835938 -71.960938 37.390625 -74.234375 C 31.953125 -76.503906 27.054688 -79.128906 22.703125 -82.109375 C 18.359375 -85.085938 14.90625 -88.679688 12.34375 -92.890625 C 9.789062 -97.109375 8.515625 -102.101562 8.515625 -107.875 Z M 8.515625 -107.875 "/></g></g></g><g clip-path="url(#f9a33fb975)"><path fill="#ffffff" d="M -12.789062 111.5 C -14.199219 123.4375 -15.34375 124.582031 -27.28125 125.992188 C -27.257812 125.996094 -27.230469 126 -27.207031 126.003906 C -15.339844 127.410156 -14.195312 128.578125 -12.789062 140.488281 C -11.375 128.550781 -10.230469 127.40625 1.707031 125.992188 C -10.230469 124.582031 -11.375 123.4375 -12.789062 111.5 Z M -12.789062 111.5 " fill-opacity="1" fill-rule="nonzero"/></g><g fill="#000000" fill-opacity="1"><g transform="translate(242.666067, 93.859524)"><g><path d="M 22.109375 -15.734375 L 17.953125 -0.890625 L 15.75 -0.78125 L 11.1875 -12.234375 L 7.78125 -0.390625 L 5.5625 -0.28125 L -0.046875 -14.640625 L 2.09375 -14.75 L 6.609375 -3.0625 L 10.15625 -15.140625 L 12.078125 -15.234375 L 16.703125 -3.5 L 20.125 -15.640625 Z M 22.109375 -15.734375 "/></g></g></g><g fill="#000000" fill-opacity="1"><g transform="translate(267.342531, 93.411622)"><g><path d="M 12.90625 0.890625 L 12.53125 2.65625 L 2.140625 0.453125 L 5.171875 -13.859375 L 15.28125 -11.71875 L 14.90625 -9.9375 L 6.84375 -11.640625 L 5.90625 -7.234375 L 13.078125 -5.71875 L 12.71875 -3.984375 L 5.546875 -5.5 L 4.5625 -0.875 Z M 12.90625 0.890625 "/></g></g></g><g fill="#000000" fill-opacity="1"><g transform="translate(282.460163, 96.613578)"><g><path d="M 19.5 -7.1875 L 13.4375 6.125 L 11.546875 5.265625 L 14.25 -0.65625 L 6.59375 -4.140625 L 3.890625 1.78125 L 1.984375 0.90625 L 8.046875 -12.40625 L 9.953125 -11.53125 L 7.34375 -5.796875 L 15 -2.3125 L 17.609375 -8.046875 Z M 19.5 -7.1875 "/></g></g></g><g fill="#000000" fill-opacity="1"><g transform="translate(299.048801, 104.456192)"><g><path d="M 11.359375 4.109375 L 5.1875 -0.640625 L 1.6875 1.296875 L -0.015625 -0.015625 L 14.140625 -7.59375 L 15.78125 -6.328125 L 12.140625 9.328125 L 10.40625 7.984375 Z M 11.796875 2.328125 L 13.65625 -5.28125 L 6.796875 -1.515625 Z M 11.796875 2.328125 "/></g></g></g><g fill="#000000" fill-opacity="1"><g transform="translate(312.235608, 114.778852)"><g><path d="M 7.71875 9.15625 L 9.09375 3.84375 C 8.84375 3.5625 8.640625 3.332031 8.484375 3.15625 L 6.171875 0.40625 L 2.765625 3.28125 L 1.40625 1.671875 L 12.59375 -7.75 L 16.265625 -3.390625 C 17.492188 -1.941406 18.109375 -0.507812 18.109375 0.90625 C 18.117188 2.320312 17.515625 3.539062 16.296875 4.5625 C 15.429688 5.289062 14.515625 5.695312 13.546875 5.78125 C 12.585938 5.863281 11.640625 5.632812 10.703125 5.09375 L 9.1875 10.890625 Z M 9.796875 1.984375 C 10.648438 2.992188 11.519531 3.582031 12.40625 3.75 C 13.289062 3.914062 14.140625 3.65625 14.953125 2.96875 C 15.765625 2.289062 16.160156 1.5 16.140625 0.59375 C 16.128906 -0.300781 15.695312 -1.253906 14.84375 -2.265625 L 12.5625 -4.96875 L 7.515625 -0.71875 Z M 9.796875 1.984375 "/></g></g></g><g fill="#000000" fill-opacity="1"><g transform="translate(322.844827, 127.602397)"><g><path d="M 8.59375 8.484375 L 4.96875 1.609375 L 0.984375 1.875 L 0 -0.015625 L 16 -0.984375 L 16.96875 0.859375 L 7.125 13.546875 L 6.109375 11.609375 Z M 9.734375 7.0625 L 14.609375 0.9375 L 6.796875 1.46875 Z M 9.734375 7.0625 "/></g></g></g><g fill="#000000" fill-opacity="1"><g transform="translate(330.315425, 142.932223)"><g/></g></g><g fill="#000000" fill-opacity="1"><g transform="translate(332.842262, 150.005104)"><g><path d="M 0.984375 6.375 C 0.785156 5.300781 0.765625 4.226562 0.921875 3.15625 C 1.078125 2.082031 1.367188 1.210938 1.796875 0.546875 L 3.546875 1 C 3.140625 1.644531 2.859375 2.421875 2.703125 3.328125 C 2.554688 4.242188 2.566406 5.148438 2.734375 6.046875 C 2.953125 7.234375 3.316406 8.085938 3.828125 8.609375 C 4.347656 9.128906 4.941406 9.332031 5.609375 9.21875 C 6.097656 9.125 6.46875 8.890625 6.71875 8.515625 C 6.976562 8.140625 7.144531 7.695312 7.21875 7.1875 C 7.300781 6.675781 7.363281 5.972656 7.40625 5.078125 C 7.46875 3.941406 7.566406 3.019531 7.703125 2.3125 C 7.847656 1.601562 8.144531 0.960938 8.59375 0.390625 C 9.050781 -0.171875 9.738281 -0.535156 10.65625 -0.703125 C 11.425781 -0.847656 12.15625 -0.773438 12.84375 -0.484375 C 13.53125 -0.203125 14.132812 0.316406 14.65625 1.078125 C 15.1875 1.835938 15.5625 2.828125 15.78125 4.046875 C 15.9375 4.898438 15.976562 5.753906 15.90625 6.609375 C 15.832031 7.472656 15.644531 8.238281 15.34375 8.90625 L 13.59375 8.53125 C 13.851562 7.851562 14.019531 7.148438 14.09375 6.421875 C 14.164062 5.703125 14.140625 5.015625 14.015625 4.359375 C 13.804688 3.191406 13.4375 2.359375 12.90625 1.859375 C 12.382812 1.359375 11.789062 1.171875 11.125 1.296875 C 10.625 1.390625 10.25 1.625 10 2 C 9.75 2.382812 9.582031 2.832031 9.5 3.34375 C 9.414062 3.863281 9.351562 4.5625 9.3125 5.4375 C 9.257812 6.5625 9.160156 7.472656 9.015625 8.171875 C 8.878906 8.878906 8.582031 9.515625 8.125 10.078125 C 7.675781 10.648438 7 11.019531 6.09375 11.1875 C 5.34375 11.320312 4.617188 11.242188 3.921875 10.953125 C 3.222656 10.660156 2.613281 10.128906 2.09375 9.359375 C 1.582031 8.585938 1.210938 7.59375 0.984375 6.375 Z M 0.984375 6.375 "/></g></g></g><g fill="#000000" fill-opacity="1"><g transform="translate(335.526358, 164.207826)"><g><path d="M -0.484375 8.796875 C -0.429688 7.316406 -0.0625 5.992188 0.625 4.828125 C 1.320312 3.671875 2.253906 2.773438 3.421875 2.140625 C 4.585938 1.503906 5.875 1.210938 7.28125 1.265625 C 8.6875 1.304688 9.941406 1.6875 11.046875 2.40625 C 12.160156 3.125 13.019531 4.085938 13.625 5.296875 C 14.238281 6.503906 14.519531 7.847656 14.46875 9.328125 C 14.414062 10.785156 14.039062 12.09375 13.34375 13.25 C 12.65625 14.40625 11.734375 15.296875 10.578125 15.921875 C 9.421875 16.546875 8.132812 16.835938 6.71875 16.796875 C 5.300781 16.742188 4.035156 16.363281 2.921875 15.65625 C 1.816406 14.945312 0.957031 13.988281 0.34375 12.78125 C -0.257812 11.582031 -0.535156 10.253906 -0.484375 8.796875 Z M 1.375 8.859375 C 1.332031 9.929688 1.539062 10.898438 2 11.765625 C 2.457031 12.628906 3.101562 13.320312 3.9375 13.84375 C 4.78125 14.375 5.734375 14.660156 6.796875 14.703125 C 7.859375 14.734375 8.820312 14.515625 9.6875 14.046875 C 10.5625 13.585938 11.253906 12.941406 11.765625 12.109375 C 12.285156 11.273438 12.566406 10.320312 12.609375 9.25 C 12.648438 8.175781 12.441406 7.195312 11.984375 6.3125 C 11.535156 5.425781 10.890625 4.71875 10.046875 4.1875 C 9.210938 3.664062 8.265625 3.390625 7.203125 3.359375 C 6.140625 3.316406 5.171875 3.523438 4.296875 3.984375 C 3.429688 4.453125 2.738281 5.113281 2.21875 5.96875 C 1.695312 6.820312 1.414062 7.785156 1.375 8.859375 Z M 1.375 8.859375 "/></g></g></g><g fill="#000000" fill-opacity="1"><g transform="translate(334.471157, 183.141138)"><g><path d="M 2.9375 8.828125 L -1.96875 7.546875 L -1.4375 5.53125 L 3.484375 6.8125 L 14.171875 3.609375 L 13.609375 5.78125 L 4.984375 8.359375 L 11.25 14.84375 L 10.71875 16.84375 Z M 2.9375 8.828125 "/></g></g></g><g fill="#000000" fill-opacity="1"><g transform="translate(330.526129, 197.697396)"><g><path d="M -4.109375 12.609375 L -5.734375 11.8125 L -0.390625 0.796875 L 0.890625 1.421875 L 7.125 14.671875 L 11.078125 6.53125 L 12.703125 7.328125 L 7.546875 17.953125 L 6.265625 17.328125 L 0.015625 4.125 Z M -4.109375 12.609375 "/></g></g></g><g fill="#000000" fill-opacity="1"><g transform="translate(323.812664, 211.373194)"><g><path d="M -4.15625 11.34375 L 0.609375 5.1875 L -1.296875 1.6875 L 0.015625 -0.015625 L 7.53125 14.171875 L 6.25 15.8125 L -9.375 12.109375 L -8.03125 10.375 Z M -2.390625 11.78125 L 5.203125 13.6875 L 1.484375 6.796875 Z M -2.390625 11.78125 "/></g></g></g><g fill="#000000" fill-opacity="1"><g transform="translate(172.989833, 302.675613)"><g><path d="M 1.8125 -12.109375 L 6.921875 -12.109375 C 8.203125 -12.109375 9.335938 -11.851562 10.328125 -11.34375 C 11.316406 -10.832031 12.082031 -10.117188 12.625 -9.203125 C 13.175781 -8.285156 13.453125 -7.234375 13.453125 -6.046875 C 13.453125 -4.859375 13.175781 -3.804688 12.625 -2.890625 C 12.082031 -1.972656 11.316406 -1.257812 10.328125 -0.75 C 9.335938 -0.25 8.203125 0 6.921875 0 L 1.8125 0 Z M 6.8125 -1.5 C 7.789062 -1.5 8.648438 -1.6875 9.390625 -2.0625 C 10.140625 -2.445312 10.71875 -2.984375 11.125 -3.671875 C 11.53125 -4.359375 11.734375 -5.148438 11.734375 -6.046875 C 11.734375 -6.953125 11.53125 -7.75 11.125 -8.4375 C 10.71875 -9.125 10.140625 -9.65625 9.390625 -10.03125 C 8.648438 -10.414062 7.789062 -10.609375 6.8125 -10.609375 L 3.546875 -10.609375 L 3.546875 -1.5 Z M 6.8125 -1.5 "/></g></g></g><g fill="#000000" fill-opacity="1"><g transform="translate(192.456335, 302.675613)"><g><path d="M 9.53125 -3.03125 L 3.09375 -3.03125 L 1.765625 0 L -0.015625 0 L 5.46875 -12.109375 L 7.171875 -12.109375 L 12.671875 0 L 10.859375 0 Z M 8.921875 -4.40625 L 6.3125 -10.34375 L 3.703125 -4.40625 Z M 8.921875 -4.40625 "/></g></g></g><g fill="#000000" fill-opacity="1"><g transform="translate(210.298291, 302.675613)"><g><path d="M 4.21875 -10.609375 L 0.0625 -10.609375 L 0.0625 -12.109375 L 10.078125 -12.109375 L 10.078125 -10.609375 L 5.9375 -10.609375 L 5.9375 0 L 4.21875 0 Z M 4.21875 -10.609375 "/></g></g></g><g fill="#000000" fill-opacity="1"><g transform="translate(225.634298, 302.675613)"><g><path d="M 9.53125 -3.03125 L 3.09375 -3.03125 L 1.765625 0 L -0.015625 0 L 5.46875 -12.109375 L 7.171875 -12.109375 L 12.671875 0 L 10.859375 0 Z M 8.921875 -4.40625 L 6.3125 -10.34375 L 3.703125 -4.40625 Z M 8.921875 -4.40625 "/></g></g></g><g fill="#000000" fill-opacity="1"><g transform="translate(243.476254, 302.675613)"><g/></g></g><g fill="#000000" fill-opacity="1"><g transform="translate(253.316446, 302.675613)"><g><path d="M 5.34375 0.140625 C 4.4375 0.140625 3.554688 0 2.703125 -0.28125 C 1.859375 -0.5625 1.191406 -0.929688 0.703125 -1.390625 L 1.34375 -2.734375 C 1.8125 -2.316406 2.40625 -1.976562 3.125 -1.71875 C 3.84375 -1.457031 4.582031 -1.328125 5.34375 -1.328125 C 6.34375 -1.328125 7.09375 -1.5 7.59375 -1.84375 C 8.09375 -2.1875 8.34375 -2.640625 8.34375 -3.203125 C 8.34375 -3.617188 8.207031 -3.953125 7.9375 -4.203125 C 7.664062 -4.460938 7.328125 -4.660156 6.921875 -4.796875 C 6.523438 -4.941406 5.960938 -5.101562 5.234375 -5.28125 C 4.328125 -5.5 3.59375 -5.71875 3.03125 -5.9375 C 2.476562 -6.15625 2 -6.488281 1.59375 -6.9375 C 1.195312 -7.394531 1 -8.007812 1 -8.78125 C 1 -9.425781 1.171875 -10.007812 1.515625 -10.53125 C 1.859375 -11.050781 2.375 -11.46875 3.0625 -11.78125 C 3.75 -12.09375 4.609375 -12.25 5.640625 -12.25 C 6.359375 -12.25 7.0625 -12.15625 7.75 -11.96875 C 8.4375 -11.78125 9.03125 -11.515625 9.53125 -11.171875 L 8.953125 -9.796875 C 8.453125 -10.117188 7.910156 -10.363281 7.328125 -10.53125 C 6.753906 -10.695312 6.191406 -10.78125 5.640625 -10.78125 C 4.660156 -10.78125 3.925781 -10.597656 3.4375 -10.234375 C 2.945312 -9.878906 2.703125 -9.421875 2.703125 -8.859375 C 2.703125 -8.441406 2.835938 -8.101562 3.109375 -7.84375 C 3.390625 -7.582031 3.734375 -7.378906 4.140625 -7.234375 C 4.546875 -7.085938 5.101562 -6.9375 5.8125 -6.78125 C 6.71875 -6.5625 7.445312 -6.34375 8 -6.125 C 8.5625 -5.90625 9.039062 -5.566406 9.4375 -5.109375 C 9.832031 -4.660156 10.03125 -4.054688 10.03125 -3.296875 C 10.03125 -2.671875 9.859375 -2.09375 9.515625 -1.5625 C 9.171875 -1.039062 8.644531 -0.625 7.9375 -0.3125 C 7.238281 -0.0078125 6.375 0.140625 5.34375 0.140625 Z M 5.34375 0.140625 "/></g></g></g><g fill="#000000" fill-opacity="1"><g transform="translate(269.240056, 302.675613)"><g><path d="M 7.234375 0.140625 C 6.015625 0.140625 4.914062 -0.125 3.9375 -0.65625 C 2.96875 -1.195312 2.207031 -1.9375 1.65625 -2.875 C 1.101562 -3.820312 0.828125 -4.878906 0.828125 -6.046875 C 0.828125 -7.222656 1.101562 -8.28125 1.65625 -9.21875 C 2.207031 -10.164062 2.972656 -10.90625 3.953125 -11.4375 C 4.941406 -11.976562 6.039062 -12.25 7.25 -12.25 C 8.195312 -12.25 9.0625 -12.085938 9.84375 -11.765625 C 10.625 -11.453125 11.289062 -10.984375 11.84375 -10.359375 L 10.71875 -9.265625 C 9.8125 -10.222656 8.675781 -10.703125 7.3125 -10.703125 C 6.414062 -10.703125 5.601562 -10.5 4.875 -10.09375 C 4.144531 -9.695312 3.578125 -9.144531 3.171875 -8.4375 C 2.765625 -7.726562 2.5625 -6.929688 2.5625 -6.046875 C 2.5625 -5.171875 2.765625 -4.378906 3.171875 -3.671875 C 3.578125 -2.960938 4.144531 -2.40625 4.875 -2 C 5.601562 -1.601562 6.414062 -1.40625 7.3125 -1.40625 C 8.664062 -1.40625 9.800781 -1.890625 10.71875 -2.859375 L 11.84375 -1.765625 C 11.289062 -1.140625 10.617188 -0.664062 9.828125 -0.34375 C 9.035156 -0.0195312 8.171875 0.140625 7.234375 0.140625 Z M 7.234375 0.140625 "/></g></g></g><g fill="#000000" fill-opacity="1"><g transform="translate(286.926462, 302.675613)"><g><path d="M 1.8125 -12.109375 L 3.546875 -12.109375 L 3.546875 0 L 1.8125 0 Z M 1.8125 -12.109375 "/></g></g></g><g fill="#000000" fill-opacity="1"><g transform="translate(297.475231, 302.675613)"><g><path d="M 10.609375 -1.5 L 10.609375 0 L 1.8125 0 L 1.8125 -12.109375 L 10.359375 -12.109375 L 10.359375 -10.609375 L 3.546875 -10.609375 L 3.546875 -6.890625 L 9.609375 -6.890625 L 9.609375 -5.40625 L 3.546875 -5.40625 L 3.546875 -1.5 Z M 10.609375 -1.5 "/></g></g></g><g fill="#000000" fill-opacity="1"><g transform="translate(314.245664, 302.675613)"><g><path d="M 12.234375 -12.109375 L 12.234375 0 L 10.8125 0 L 3.546875 -9.03125 L 3.546875 0 L 1.8125 0 L 1.8125 -12.109375 L 3.234375 -12.109375 L 10.5 -3.078125 L 10.5 -12.109375 Z M 12.234375 -12.109375 "/></g></g></g><g fill="#000000" fill-opacity="1"><g transform="translate(333.470204, 302.675613)"><g><path d="M 7.234375 0.140625 C 6.015625 0.140625 4.914062 -0.125 3.9375 -0.65625 C 2.96875 -1.195312 2.207031 -1.9375 1.65625 -2.875 C 1.101562 -3.820312 0.828125 -4.878906 0.828125 -6.046875 C 0.828125 -7.222656 1.101562 -8.28125 1.65625 -9.21875 C 2.207031 -10.164062 2.972656 -10.90625 3.953125 -11.4375 C 4.941406 -11.976562 6.039062 -12.25 7.25 -12.25 C 8.195312 -12.25 9.0625 -12.085938 9.84375 -11.765625 C 10.625 -11.453125 11.289062 -10.984375 11.84375 -10.359375 L 10.71875 -9.265625 C 9.8125 -10.222656 8.675781 -10.703125 7.3125 -10.703125 C 6.414062 -10.703125 5.601562 -10.5 4.875 -10.09375 C 4.144531 -9.695312 3.578125 -9.144531 3.171875 -8.4375 C 2.765625 -7.726562 2.5625 -6.929688 2.5625 -6.046875 C 2.5625 -5.171875 2.765625 -4.378906 3.171875 -3.671875 C 3.578125 -2.960938 4.144531 -2.40625 4.875 -2 C 5.601562 -1.601562 6.414062 -1.40625 7.3125 -1.40625 C 8.664062 -1.40625 9.800781 -1.890625 10.71875 -2.859375 L 11.84375 -1.765625 C 11.289062 -1.140625 10.617188 -0.664062 9.828125 -0.34375 C 9.035156 -0.0195312 8.171875 0.140625 7.234375 0.140625 Z M 7.234375 0.140625 "/></g></g></g><g fill="#000000" fill-opacity="1"><g transform="translate(351.1566, 302.675613)"><g><path d="M 10.609375 -1.5 L 10.609375 0 L 1.8125 0 L 1.8125 -12.109375 L 10.359375 -12.109375 L 10.359375 -10.609375 L 3.546875 -10.609375 L 3.546875 -6.890625 L 9.609375 -6.890625 L 9.609375 -5.40625 L 3.546875 -5.40625 L 3.546875 -1.5 Z M 10.609375 -1.5 "/></g></g></g><g fill="#000000" fill-opacity="1"><g transform="translate(367.938155, 302.675613)"><g/></g></g></svg>